<?xml version="1.0" encoding="utf-8"?>
<!-- Generator: Adobe Illustrator 24.0.1, SVG Export Plug-In . SVG Version: 6.00 Build 0)  -->
<svg version="1.1" id="레이어_1" xmlns="http://www.w3.org/2000/svg" xmlns:xlink="http://www.w3.org/1999/xlink" x="0px"
	 y="0px" viewBox="0 0 88 90" style="enable-background:new 0 0 88 90;" xml:space="preserve">
<style type="text/css">
	.st0{fill:#FFFFFF;}
</style>
<g>
	<path class="st0" d="M37.9,8.9c16,0,29,13,29,29s-13,29-29,29s-29-13-29-29S21.9,8.9,37.9,8.9 M37.9,0C17,0,0,17,0,37.9
		s17,37.9,37.9,37.9s37.9-17,37.9-37.9S58.8,0,37.9,0L37.9,0z"/>
	<path class="st0" d="M19.3,43.1c-2,0-3.6-1.6-3.6-3.6c0-8.8,5.2-16.9,13.3-20.5c1.8-0.8,4,0,4.8,1.8c0.8,1.8,0,4-1.8,4.8
		c-5.5,2.4-9,7.9-9,13.9C23,41.5,21.3,43.1,19.3,43.1z"/>
	<path class="st0" d="M79.7,89.4c-1.9,0-3.7-0.7-5.1-2.1L58.5,71.2c-2.8-2.8-2.8-7.4,0-10.3c2.8-2.8,7.4-2.8,10.3,0L84.9,77
		c2.8,2.8,2.8,7.4,0,10.3C83.5,88.7,81.6,89.4,79.7,89.4z"/>
</g>
</svg>
