<?xml version="1.0" encoding="utf-8"?>
<!-- Generator: Adobe Illustrator 16.0.0, SVG Export Plug-In . SVG Version: 6.00 Build 0)  -->
<!DOCTYPE svg PUBLIC "-//W3C//DTD SVG 1.1//EN" "http://www.w3.org/Graphics/SVG/1.1/DTD/svg11.dtd">
<svg version="1.1" id="레이어_1" xmlns="http://www.w3.org/2000/svg" xmlns:xlink="http://www.w3.org/1999/xlink" x="0px"
	 y="0px" width="900px" height="900px" viewBox="0 0 900 900" enable-background="new 0 0 900 900" xml:space="preserve">
<path fill="#222222" d="M480.492,186.476c-0.679-1.173-1.46-2.284-2.335-3.319c-10.89-12.89-107.737-126.702-154.394-153.362
	c-21.835-12.477-40.698-14.284-56.063-5.366c-22.179,12.871-22.819,41.206-22.819,44.395v195.644c-0.001,0.143-0.001,0.286,0,0.429
	V564.5c0,12.702,10.297,23,23,23s23-10.298,23-23V286.25c30.206-1.854,87.056-4.897,134.765-4.897
	c29.451,0,49.66-9.15,60.064-27.196C502.183,225.587,482.762,190.395,480.492,186.476z"/>
<path fill="#222222" d="M453.176,499.765c-214.611,0-388.588,83.433-388.588,186.353s173.977,186.354,388.588,186.354
	s388.588-83.434,388.588-186.354S667.787,499.765,453.176,499.765z M299.647,644.823c-31.577,0-57.176-11.377-57.176-25.411
	c0-14.035,25.599-25.412,57.176-25.412c31.578,0,57.177,11.377,57.177,25.412C356.823,633.446,331.225,644.823,299.647,644.823z"/>
</svg>
