<?xml version="1.0" encoding="utf-8"?>
<!-- Generator: Adobe Illustrator 24.0.1, SVG Export Plug-In . SVG Version: 6.00 Build 0)  -->
<svg version="1.1" id="레이어_1" xmlns="http://www.w3.org/2000/svg" xmlns:xlink="http://www.w3.org/1999/xlink" x="0px"
	 y="0px" viewBox="0 0 80 72" style="enable-background:new 0 0 80 72;" xml:space="preserve">
<style type="text/css">
	.st0{fill:#FFFFFF;}
</style>
<path class="st0" d="M74.9,10.3H5.2c-2.7,0-5-2.2-5-5s2.2-5,5-5h69.7c2.7,0,5,2.2,5,5S77.6,10.3,74.9,10.3z"/>
<path class="st0" d="M58.9,41.2H5.2c-2.7,0-5-2.2-5-5c0-2.7,2.2-5,5-5h53.7c2.7,0,5,2.2,5,5C63.9,38.9,61.7,41.2,58.9,41.2z"/>
<path class="st0" d="M74.9,72H5.2c-2.7,0-5-2.2-5-5c0-2.7,2.2-5,5-5h69.7c2.7,0,5,2.2,5,5C79.8,69.8,77.6,72,74.9,72z"/>
</svg>
