<?xml version="1.0" encoding="utf-8"?>
<!-- Generator: Adobe Illustrator 16.0.0, SVG Export Plug-In . SVG Version: 6.00 Build 0)  -->
<!DOCTYPE svg PUBLIC "-//W3C//DTD SVG 1.1//EN" "http://www.w3.org/Graphics/SVG/1.1/DTD/svg11.dtd">
<svg version="1.1" id="레이어_1" xmlns="http://www.w3.org/2000/svg" xmlns:xlink="http://www.w3.org/1999/xlink" x="0px"
	 y="0px" width="900px" height="900px" viewBox="0 0 900 900" enable-background="new 0 0 900 900" xml:space="preserve">
<path fill="#222222" d="M778.235,525.177c0-8.471,2.118-13.765,10.589-11.647c5.294,1.059,9.529,0,14.823,0
	c33.883-1.059,65.647-33.882,66.706-70.941c0-21.176-7.412-39.176-21.177-54c-66.706-72-132.353-142.941-199.059-214.941
	C607.765,127.059,564.353,81.529,522,34.941C501.882,12.706,478.588,1.059,451.059,0C421.411-1.059,396,11.647,374.823,36
	C306,110.118,237.176,185.294,168.353,259.412c-40.235,43.412-80.471,85.765-119.646,129.177
	c-26.471,29.647-28.589,68.824-5.295,100.588c14.824,20.117,41.295,25.411,63.53,24.353c12.705-1.059,12.705,0,12.705,13.765
	c0,111.177,0,222.354,0,333.529c0,25.412,11.647,39.177,33.883,39.177c50.823,0,49.765,0,100.588,0h59.294V617.294
	c0-16.941,11.647-30.706,26.471-30.706H558c14.823,0,26.47,13.765,26.47,30.706V900H630c50.823,0,65.646,0,116.47,0
	c21.177,0,32.824-13.765,32.824-37.059"/>
<path fill="#222222" d="M696.705,150.353c29.647,31.765,58.235,63.529,87.883,95.294V72c0-18-12.706-32.824-28.588-32.824h-63.53
	C676.588,39.176,663.882,54,663.882,72v43.412C674.47,127.059,686.117,138.706,696.705,150.353z"/>
</svg>
