<?xml version="1.0" encoding="utf-8"?>
<!-- Generator: Adobe Illustrator 24.0.1, SVG Export Plug-In . SVG Version: 6.00 Build 0)  -->
<svg version="1.1" id="레이어_1" xmlns="http://www.w3.org/2000/svg" xmlns:xlink="http://www.w3.org/1999/xlink" x="0px"
	 y="0px" viewBox="0 0 73 68" style="enable-background:new 0 0 73 68;" xml:space="preserve">
<style type="text/css">
	.st0{fill:#FF6E6E;}
</style>
<path class="st0" d="M35,58.4l-17.7,9.3c-2,1.1-4.3-0.6-4-2.9l3.4-19.7c0.2-0.9-0.1-1.8-0.8-2.4L1.7,28.8c-1.6-1.6-0.7-4.3,1.5-4.6
	L23,21.3c0.9-0.1,1.7-0.7,2.1-1.5l8.8-17.9c1-2,3.9-2,4.9,0l8.8,17.9c0.4,0.8,1.2,1.4,2.1,1.5l19.8,2.9c2.2,0.3,3.1,3.1,1.5,4.6
	L56.6,42.7c-0.6,0.6-0.9,1.5-0.8,2.4l3.4,19.7c0.4,2.2-2,3.9-4,2.9l-17.7-9.3C36.8,58,35.8,58,35,58.4z"/>
</svg>
