<?xml version="1.0" encoding="utf-8"?>
<!-- Generator: Adobe Illustrator 16.0.0, SVG Export Plug-In . SVG Version: 6.00 Build 0)  -->
<!DOCTYPE svg PUBLIC "-//W3C//DTD SVG 1.1//EN" "http://www.w3.org/Graphics/SVG/1.1/DTD/svg11.dtd">
<svg version="1.1" id="Layer_1" xmlns="http://www.w3.org/2000/svg" xmlns:xlink="http://www.w3.org/1999/xlink" x="0px" y="0px"
	 width="299.75px" height="54.75px" viewBox="0 0 299.75 54.75" enable-background="new 0 0 299.75 54.75" xml:space="preserve">
<g>
	<path fill="#090D11" d="M75.389,17.09c-0.763,0-1.405,0.279-1.93,0.833c-0.524,0.557-0.802,1.249-0.834,2.074
		c0.032,0.73,0.31,1.357,0.834,1.882c0.525,0.524,1.167,0.787,1.93,0.787h3.24c1.175,0,2.311,0.238,3.407,0.713
		c1.097,0.478,2.072,1.137,2.93,1.979c0.857,0.842,1.541,1.826,2.049,2.955c0.507,1.127,0.762,2.328,0.762,3.597
		c0,1.239-0.238,2.414-0.716,3.526c-0.475,1.111-1.127,2.08-1.952,2.906c-0.827,0.826-1.795,1.485-2.907,1.978
		c-1.112,0.492-2.303,0.756-3.573,0.787h-8.482c-0.953,0-1.731-0.311-2.334-0.932c-0.605-0.618-0.906-1.39-0.906-2.309
		c0-0.858,0.31-1.604,0.929-2.24c0.62-0.636,1.39-0.953,2.311-0.953h8.482c0.729,0,1.381-0.27,1.954-0.81
		c0.573-0.54,0.856-1.192,0.856-1.954c0-0.793-0.277-1.453-0.833-1.978c-0.556-0.524-1.2-0.802-1.931-0.834h-3.287
		c-1.208-0.03-2.368-0.286-3.479-0.762c-1.112-0.476-2.09-1.12-2.931-1.93c-0.841-0.809-1.518-1.77-2.024-2.883
		c-0.51-1.111-0.763-2.317-0.763-3.622c0-1.174,0.239-2.317,0.715-3.431c0.475-1.11,1.134-2.095,1.978-2.953
		c0.842-0.858,1.818-1.547,2.931-2.072c1.111-0.525,2.302-0.787,3.573-0.787h8.482c0.857,0,1.587,0.31,2.191,0.93
		c0.604,0.619,0.938,1.389,1,2.31c0,0.922-0.301,1.685-0.905,2.287c-0.603,0.604-1.365,0.905-2.286,0.905H75.389z"/>
	<path fill="#090D11" d="M99.791,41.106c-1.175,0-2.278-0.223-3.31-0.668c-1.034-0.444-1.93-1.04-2.694-1.788
		c-0.761-0.744-1.364-1.619-1.811-2.619c-0.444-1-0.666-2.057-0.666-3.17V21.141c-0.033-0.413,0.04-0.811,0.213-1.192
		c0.175-0.382,0.406-0.714,0.691-1c0.286-0.288,0.619-0.508,1.001-0.669c0.38-0.158,0.793-0.237,1.238-0.237
		c0.826,0,1.532,0.279,2.12,0.833c0.588,0.557,0.913,1.215,0.978,1.977v11.817c0.03,0.636,0.261,1.16,0.689,1.574
		c0.43,0.411,0.945,0.617,1.548,0.617c0.541,0,1.032-0.197,1.479-0.594c0.443-0.398,0.683-0.912,0.714-1.549V20.806
		c0-0.794,0.318-1.469,0.954-2.024c0.635-0.556,1.348-0.833,2.144-0.833c0.858,0,1.597,0.302,2.215,0.904
		c0.62,0.604,0.93,1.334,0.93,2.192V32.72c0,0.697,0.23,1.23,0.691,1.597c0.46,0.363,0.959,0.546,1.501,0.546
		c0.634,0,1.167-0.206,1.596-0.617c0.43-0.414,0.644-0.922,0.644-1.525V21.141c0-0.826,0.31-1.548,0.929-2.168
		c0.62-0.62,1.341-0.929,2.167-0.929s1.557,0.286,2.192,0.857c0.635,0.572,0.953,1.239,0.953,2.002v11.959
		c0,1.145-0.232,2.225-0.691,3.241c-0.46,1.016-1.08,1.891-1.858,2.619c-0.78,0.732-1.685,1.313-2.716,1.74
		c-1.033,0.429-2.105,0.645-3.216,0.645c-2.034,0-3.812-0.621-5.337-1.86c-0.763,0.636-1.596,1.104-2.502,1.405
		C101.674,40.955,100.745,41.106,99.791,41.106"/>
	<path fill="#090D11" d="M125.862,10.896c0.825,0,1.532,0.31,2.12,0.928c0.588,0.62,0.882,1.342,0.882,2.169
		s-0.294,1.548-0.882,2.167s-1.295,0.929-2.12,0.929c-0.922-0.03-1.677-0.325-2.264-0.882c-0.587-0.555-0.881-1.34-0.881-2.358
		c0.031-0.826,0.358-1.525,0.977-2.098C124.314,11.182,125.036,10.896,125.862,10.896 M125.862,18.186
		c0.825,0,1.516,0.302,2.073,0.905c0.555,0.605,0.864,1.334,0.93,2.193v16.865c0,0.859-0.271,1.573-0.811,2.146
		c-0.54,0.57-1.27,0.89-2.192,0.951c-0.826,0-1.524-0.252-2.097-0.762c-0.571-0.507-0.92-1.222-1.048-2.144V21.093
		c0.063-0.826,0.397-1.509,1.001-2.049C124.321,18.503,125.036,18.218,125.862,18.186"/>
	<path fill="#090D11" d="M144.119,17.899c1.525,0,2.985,0.279,4.383,0.834c1.398,0.558,2.621,1.334,3.669,2.335
		c1.049,1.001,1.889,2.185,2.526,3.55c0.635,1.366,0.953,2.845,0.953,4.432v8.816c0,0.827-0.295,1.54-0.882,2.144
		c-0.588,0.604-1.311,0.921-2.168,0.953c-0.856,0-1.595-0.278-2.215-0.836c-0.619-0.555-0.93-1.262-0.93-2.118v-8.578
		c0-0.73-0.135-1.42-0.404-2.072c-0.271-0.65-0.651-1.215-1.143-1.691c-0.493-0.477-1.065-0.858-1.715-1.144
		c-0.651-0.286-1.357-0.43-2.122-0.43c-0.699,0-1.365,0.138-2.001,0.407c-0.635,0.27-1.191,0.626-1.667,1.071
		c-0.477,0.445-0.857,0.985-1.146,1.619c-0.284,0.636-0.427,1.304-0.427,2.002v8.673c0,0.827-0.318,1.548-0.953,2.168
		c-0.636,0.617-1.366,0.929-2.191,0.929c-0.826,0-1.557-0.287-2.192-0.858c-0.636-0.571-0.953-1.27-0.953-2.096v-8.578
		c0.032-1.587,0.34-3.081,0.929-4.479c0.586-1.396,1.397-2.62,2.43-3.668c1.032-1.048,2.248-1.876,3.646-2.479
		C140.943,18.201,142.466,17.899,144.119,17.899"/>
	<path fill="#090D11" d="M200.739,17.948c0.856,0,1.572,0.325,2.145,0.976c0.571,0.652,0.858,1.343,0.858,2.073
		c0,0.827-0.311,1.548-0.93,2.169c-0.618,0.619-1.311,0.928-2.073,0.928h-8.196c-0.381,0-0.706,0.112-0.978,0.335
		c-0.27,0.222-0.404,0.54-0.404,0.953c0,0.445,0.135,0.785,0.404,1.024c0.271,0.238,0.597,0.358,0.978,0.358h5.386
		c0.984,0,1.897,0.206,2.739,0.619c0.841,0.413,1.573,0.961,2.19,1.645c0.62,0.683,1.104,1.405,1.456,2.167
		c0.349,0.763,0.523,1.62,0.523,2.573c0.031,1.049-0.151,2.033-0.548,2.955c-0.397,0.921-0.93,1.699-1.598,2.335
		c-0.667,0.635-1.445,1.136-2.334,1.502c-0.89,0.364-1.892,0.548-3.001,0.548h-8.768c-0.827,0-1.542-0.287-2.145-0.858
		c-0.604-0.571-0.906-1.286-0.906-2.146c0-0.793,0.285-1.516,0.858-2.168c0.571-0.65,1.27-0.992,2.097-1.024h8.766
		c0.859,0,1.288-0.381,1.288-1.144c0-0.856-0.429-1.285-1.288-1.285h-5.24c-0.953,0-1.851-0.198-2.692-0.598
		c-0.842-0.395-1.572-0.943-2.189-1.643c-0.621-0.698-1.105-1.46-1.454-2.287c-0.352-0.827-0.524-1.716-0.524-2.668
		s0.182-1.875,0.548-2.763c0.364-0.89,0.865-1.669,1.501-2.336c0.634-0.667,1.382-1.199,2.239-1.596
		c0.856-0.396,1.793-0.612,2.812-0.643H200.739z"/>
	<path fill="#090D11" d="M181.815,42.126h-0.053c0-0.008,0-0.015,0-0.021L181.815,42.126v-1.947c0-2.795-0.461-3.771-1.38-5.009
		c0.919-1.653,1.38-3.557,1.38-5.719c0-1.587-0.294-3.08-0.88-4.479c-0.589-1.397-1.407-2.621-2.454-3.667
		c-1.049-1.049-2.272-1.875-3.67-2.479c-1.398-0.603-2.891-0.905-4.479-0.905c-1.524,0-2.978,0.311-4.359,0.93
		c-1.382,0.618-2.605,1.452-3.669,2.501c-1.064,1.048-1.915,2.271-2.549,3.668c-0.637,1.398-0.953,2.876-0.953,4.431
		c0,1.685,0.287,3.235,0.857,4.646c0.572,1.415,1.366,2.63,2.382,3.646c1.017,1.018,2.232,1.813,3.646,2.383
		c1.412,0.57,2.959,0.858,4.645,0.858l3.856-0.002c0.857,0,1.287,0.382,1.287,1.145c0,0.762-0.43,1.142-1.287,1.142h-12.433
		c-0.827,0.032-1.525,0.375-2.097,1.025c-0.571,0.652-0.857,1.374-0.857,2.168c0,0.857,0.302,1.572,0.906,2.145
		c0.603,0.572,1.317,0.857,2.144,0.857h12.433c1.111,0,2.11-0.182,3-0.547c0.891-0.367,1.668-0.866,2.336-1.502
		c0.667-0.635,1.197-1.413,1.597-2.334C181.612,44.159,181.848,43.174,181.815,42.126 M168.211,34.384
		c-0.651-0.303-1.213-0.698-1.691-1.19c-0.476-0.492-0.85-1.065-1.12-1.716c-0.269-0.651-0.404-1.327-0.404-2.027
		c0-0.698,0.151-1.365,0.454-2c0.301-0.635,0.698-1.198,1.191-1.691c0.491-0.492,1.054-0.889,1.69-1.191s1.302-0.453,2.001-0.453
		c0.699,0,1.373,0.143,2.026,0.43c0.651,0.285,1.222,0.667,1.714,1.144c0.491,0.476,0.889,1.039,1.191,1.69
		c0.302,0.652,0.453,1.343,0.453,2.072c0,0.732-0.135,1.414-0.404,2.051c-0.27,0.636-0.644,1.206-1.121,1.714
		c-0.477,0.511-1.047,0.905-1.715,1.191c-0.667,0.286-1.38,0.429-2.144,0.429C169.571,34.836,168.863,34.685,168.211,34.384"/>
	<path fill="#090D11" d="M220.9,18.09c1.431,0.16,2.771,0.571,4.026,1.24c1.257,0.667,2.336,1.517,3.241,2.549
		c0.906,1.033,1.621,2.208,2.146,3.526c0.522,1.319,0.784,2.708,0.784,4.168v8.436c0,0.856-0.317,1.589-0.951,2.192
		c-0.637,0.603-1.352,0.905-2.145,0.905c-1.112,0-2.002-0.51-2.669-1.525c-0.16,0.063-0.302,0.135-0.43,0.214
		c-0.127,0.081-0.255,0.15-0.38,0.215c-0.764,0.35-1.542,0.619-2.336,0.81c-0.826,0.19-1.699,0.287-2.619,0.287
		c-2.384,0-4.513-0.645-6.386-1.932c-1.876-1.286-3.273-2.945-4.193-4.979c-0.319-0.729-0.563-1.477-0.737-2.24
		c-0.177-0.763-0.263-1.556-0.263-2.383c0-0.825,0.086-1.619,0.263-2.382c0.174-0.762,0.418-1.508,0.737-2.239
		c0.92-2.065,2.317-3.732,4.193-5.003c1.873-1.27,4.002-1.905,6.386-1.905h0.69C220.466,18.043,220.678,18.06,220.9,18.09
		 M219.52,34.91c0.729,0,1.422-0.135,2.072-0.403c0.651-0.271,1.215-0.644,1.692-1.122c0.476-0.475,0.857-1.037,1.144-1.689
		c0.287-0.651,0.429-1.359,0.429-2.122c0-0.696-0.142-1.373-0.429-2.023c-0.286-0.65-0.676-1.224-1.167-1.717
		c-0.494-0.492-1.065-0.881-1.715-1.167c-0.651-0.286-1.327-0.429-2.026-0.429s-1.366,0.143-2,0.429
		c-0.637,0.286-1.2,0.675-1.692,1.167c-0.493,0.493-0.882,1.066-1.167,1.717c-0.287,0.65-0.429,1.327-0.429,2.023
		c0,0.732,0.148,1.422,0.451,2.074c0.301,0.651,0.698,1.214,1.191,1.69s1.056,0.858,1.693,1.145
		C218.202,34.769,218.854,34.91,219.52,34.91"/>
	<path fill="#090D11" d="M250.88,18.186c0.825,0.35,1.413,0.913,1.762,1.692c0.351,0.779,0.351,1.58,0,2.406l-6.906,16.82
		c-0.159,0.351-0.504,0.772-1.025,1.263c-0.525,0.494-1.153,0.74-1.883,0.74c-0.637,0-1.238-0.151-1.81-0.455
		c-0.573-0.301-0.987-0.816-1.239-1.548l-7.005-16.82c-0.349-0.826-0.349-1.627,0-2.406c0.349-0.779,0.938-1.342,1.764-1.692
		c0.826-0.318,1.636-0.302,2.429,0.048c0.796,0.348,1.366,0.938,1.717,1.763l4.049,9.148l4.003-9.148
		c0.348-0.825,0.932-1.415,1.74-1.763C249.283,17.884,250.086,17.868,250.88,18.186"/>
	<path fill="#090D11" d="M265.896,18.043c1.524,0,2.987,0.317,4.386,0.952c1.395,0.637,2.627,1.487,3.691,2.549
		c1.063,1.066,1.913,2.288,2.551,3.669c0.633,1.382,0.951,2.837,0.951,4.359c0,0.828-0.31,1.478-0.93,1.954s-1.388,0.699-2.31,0.668
		H261.56c1.05,1.811,2.495,2.715,4.337,2.715c0.509,0,0.937-0.048,1.286-0.142c0.349-0.096,0.66-0.206,0.93-0.335
		c0.271-0.126,0.538-0.237,0.81-0.334c0.27-0.094,0.579-0.141,0.931-0.141c0.667,0.03,1.243,0.223,1.738,0.57
		c0.494,0.352,0.858,0.787,1.095,1.311c0.241,0.523,0.317,1.089,0.241,1.691c-0.082,0.604-0.358,1.162-0.837,1.668
		c-0.855,0.7-1.808,1.184-2.858,1.452c-1.048,0.271-2.16,0.424-3.335,0.455c-1.525,0.062-2.984-0.216-4.383-0.835
		c-1.398-0.62-2.632-1.461-3.692-2.524c-1.066-1.064-1.907-2.312-2.526-3.741s-0.93-2.907-0.93-4.433
		c0-1.491,0.311-2.937,0.93-4.334c0.619-1.398,1.453-2.628,2.502-3.694c1.046-1.063,2.271-1.913,3.67-2.549
		C262.862,18.361,264.339,18.043,265.896,18.043 M270.233,26.905c-0.541-0.983-1.177-1.674-1.908-2.072
		c-0.729-0.397-1.54-0.596-2.429-0.596c-0.921,0-1.738,0.199-2.453,0.596c-0.716,0.397-1.343,1.088-1.884,2.072H270.233z"/>
	<path fill="#090D11" d="M283.391,41.152c-0.856,0-1.571-0.277-2.144-0.833c-0.57-0.556-0.891-1.294-0.952-2.217v-8.813
		c0.028-1.525,0.356-2.963,0.975-4.313c0.621-1.349,1.447-2.525,2.478-3.526c1.031-1,2.24-1.793,3.623-2.382
		c1.38-0.587,2.852-0.912,4.407-0.977c0.889,0,1.626,0.301,2.215,0.905s0.913,1.335,0.979,2.191c0,0.859-0.304,1.582-0.906,2.169
		c-0.604,0.587-1.351,0.899-2.238,0.928c-0.732,0-1.415,0.137-2.049,0.406c-0.639,0.27-1.191,0.643-1.669,1.119
		c-0.478,0.476-0.858,1.041-1.144,1.692c-0.286,0.651-0.429,1.357-0.429,2.119v8.673c-0.063,0.826-0.375,1.508-0.932,2.049
		C285.053,40.884,284.311,41.152,283.391,41.152"/>
</g>
<g>
	<path fill-rule="evenodd" clip-rule="evenodd" fill="#F3F3F3" d="M25.741,11.901c1.554-0.106,3.107-0.254,4.667-0.179
		c2.292,0.11,4.561,0.402,6.786,0.979c0.026,0.007,0.046,0.041,0.068,0.062c0.229,0.424,0.551,0.695,1.049,0.792
		c0.505,0.098,0.53,0.223,0.256,0.682c-0.467,0.782-0.263,1.403,0.551,1.674c0.034-0.016,0.048-0.042,0.038-0.079
		c-0.143-0.494-0.069-0.73,0.273-0.87c0.356-0.146,0.765,0.013,0.934,0.415c0.099,0.235,0.197,0.374,0.474,0.344
		c0.233-0.026,0.369,0.148,0.501,0.309c0.275,0.334,0.605,0.598,0.992,0.795c0.494,0.253,0.493,0.257,0.257,0.787
		c-0.033,0.073-0.054,0.148-0.063,0.227c-0.072,0.29-0.122,0.58-0.005,0.871c0.125,0.312,0.323,0.524,0.669,0.545
		c0.078-0.102,0.016-0.169,0.001-0.242c-0.079-0.38,0.043-0.634,0.343-0.717c0.3-0.083,0.676,0.099,0.73,0.434
		c0.056,0.344,0.184,0.436,0.519,0.401c0.273-0.028,0.739,0.401,0.776,0.668c0.045,0.328-0.214,0.281-0.409,0.306
		c-0.175-0.002-0.342-0.064-0.516-0.076c-0.781-0.053-1.261,0.452-1.243,1.31c0.133,0.306,0.133,0.306,0.396,0.475
		c0.104-0.09,0.026-0.206,0.039-0.307c0.044-0.36,0.223-0.622,0.567-0.741c0.354-0.123,0.75,0.001,0.946,0.333
		c0.148,0.25,0.26,0.312,0.5,0.111c0.246-0.206,0.397-0.078,0.467,0.197c0.021,0.177,0.053,0.354,0.103,0.527
		c0.139,0.387,0.442,0.597,0.795,0.767c0.515,0.248,0.529,0.299,0.299,0.833c-0.086,0.149-0.177,0.293-0.363,0.331
		c-0.215,0.01-0.381-0.082-0.511-0.247c-0.25-0.594-0.615-0.82-1.267-0.779c-0.14,0.008-0.278,0.02-0.413-0.034
		c-0.229-0.142-0.47-0.256-0.734-0.313c-0.315-0.068-0.605-0.207-0.837-0.419c-0.305-0.279-0.576-0.559-1.055-0.476
		c-0.208,0.037-0.281-0.155-0.268-0.356c0.016-0.236-0.075-0.405-0.327-0.436c-0.294-0.036-0.322,0.185-0.359,0.392
		c-0.026,0.143-0.065,0.277-0.204,0.356c-0.289,0.039-0.538-0.019-0.7-0.289c0.089-0.348,0.122-0.722,0.404-0.989
		c0.499-0.472,1.055-0.519,1.676-0.159c-0.242-0.441-0.585-0.625-1.049-0.564c-0.483,0.063-0.87,0.274-1.039,0.769
		c-0.05,0.146-0.02,0.319-0.143,0.441c-0.408-0.193-0.125-0.549-0.199-0.774c0.013-0.112-0.074-0.063-0.01-0.069
		c0.01-0.001,0.009,0.013,0.01,0.044c0.003,0.199-0.073,0.372-0.181,0.529c-0.207,0.303-0.418,0.303-0.628,0.01
		c-0.457-0.639-0.69-0.641-1.145-0.008c-0.065,0.091-0.135,0.175-0.239,0.224c-0.147,0.043-0.287,0.049-0.394-0.089
		c0.021-0.953,0.719-1.498,1.63-1.279c0.111,0.027,0.259,0.199,0.333-0.052c0.026-0.058,0.063-0.111,0.122-0.135
		c0.542-0.215,0.686-0.625,0.573-1.162c-0.06-0.615,0.192-0.851,0.816-0.775c0.231,0.028,0.432,0.153,0.676,0.227
		c-0.309-0.81-1.433-0.788-1.883-0.327c-0.17,0.174-0.351,0.31-0.579,0.386c-0.642,0.21-0.636,0.75-0.653,1.28
		c-0.166,0.24-0.401,0.319-0.681,0.293c-0.064-0.183-0.025-0.457-0.373-0.376c-0.083,0.02-0.165-0.079-0.202-0.175
		c-0.015-0.265,0.16-0.505,0.061-0.789c-0.136-0.392-0.428-0.666-0.774-0.652c-0.413,0.016-0.741,0.308-0.815,0.729
		c-0.024,0.14-0.009,0.286-0.065,0.422c-0.134,0.233-0.335,0.271-0.573,0.196c-0.235-0.24,0.132-0.285,0.148-0.455
		c-0.2-0.087-0.44,0.103-0.626-0.082c-0.099-0.495-0.184-0.997-0.658-1.301c0.044-0.423,0.434-0.671,0.921-0.593
		c0.218,0.035,0.404,0.172,0.636,0.195c-0.556-0.764-1.515-0.734-1.993,0.054c-0.098,0.162-0.163,0.343-0.293,0.486
		c-0.229,0.26-0.354,0.567-0.415,0.904c-0.015,0.028-0.031,0.067-0.057,0.072c-0.477,0.1-0.89,0.334-1.297,0.586
		c-0.147-0.072-0.231-0.207-0.327-0.329c-0.006-0.121,0.097-0.145,0.172-0.197c0.402-0.28,0.521-0.71,0.308-1.105
		c-0.22-0.409-0.616-0.531-1.093-0.342c-0.145,0.058-0.263,0.181-0.432,0.18c-0.141-0.035-0.28-0.043-0.417,0.021
		c-0.536,0.249-1.086,0.327-1.644,0.112c-0.122,0.172,0.009,0.264,0.06,0.362c0.132,0.254,0.154,0.514,0.069,0.782
		c-0.053,0.17-0.142,0.325-0.341,0.357c-0.199,0.032-0.271-0.125-0.35-0.263c-0.023-0.042-0.045-0.085-0.077-0.12
		c-0.182-0.19-0.386-0.359-0.664-0.223c-0.25,0.123-0.284,0.353-0.227,0.612c0.04,0.177,0.151,0.392-0.049,0.525
		c-0.205,0.137-0.39-0.018-0.566-0.12c-0.245-0.141-0.4-0.357-0.506-0.61c-0.087-0.206-0.19-0.299-0.433-0.196
		c-0.233,0.101-0.405,0.02-0.412-0.27c-0.001-0.031-0.007-0.063-0.014-0.094c-0.036-0.173-0.136-0.284-0.316-0.306
		c-0.146-0.018-0.295-0.02-0.381,0.125c-0.091,0.154-0.042,0.305,0.041,0.449c0.086,0.154,0.303,0.289,0.123,0.496
		c-0.169,0.193-0.402,0.148-0.622,0.104c-0.272-0.056-0.483-0.225-0.698-0.39c-0.117-0.09-0.192-0.26-0.434-0.229
		c0.431,0.275,0.827,0.535,1.056,0.969c0.109,0.206,0.201,0.408-0.046,0.585c-0.088,0.043-0.183,0.06-0.28,0.064
		c-0.424,0.029-0.878-0.102-1.249,0.226c-0.255,0.124-0.499,0.281-0.797,0.281c-0.549-0.273-1.186,0.153-1.205,0.808
		c-0.112,0.298-0.336,0.488-0.604,0.637c-0.211,0.044-0.302,0.21-0.385,0.385c-0.102,0.214-0.202,0.442-0.373,0.601
		c-0.285,0.264-0.291,0.519-0.071,0.812c-0.12,0.715-0.316,1.411-0.538,2.1c-0.29,0.28-0.467,0.086-0.64-0.149
		c-0.058-0.078-0.118-0.235-0.243-0.099c-0.106,0.113,0.005,0.205,0.099,0.259c0.321,0.187,0.578,0.426,0.685,0.796
		c0.006,0.288-0.058,0.564-0.145,0.834c-0.182,0.564-0.254,1.138-0.145,1.723c0.048,0.258-0.021,0.506-0.057,0.75
		c-0.11,0.745,0,1.514-0.243,2.246c-0.039,0.118-0.058,0.257-0.021,0.373c0.247,0.778-0.037,1.556,0.013,2.333
		c-0.153,0.257-0.363,0.093-0.549,0.064c-0.668-0.103-1.521,0.687-1.458,1.356c0.024,0.249,0.157,0.433,0.441,0.604
		c0.097-0.128,0.039-0.275,0.051-0.413c0.046-0.54,0.386-0.929,0.918-0.974c0.246-0.021,0.484-0.132,0.738-0.072
		c0.152,0.72,0.229,1.443,0.162,2.178c-0.053,0.136-0.17,0.184-0.297,0.203c-0.52,0.08-0.896,0.361-1.166,0.804
		c-0.072,0.118-0.146,0.253-0.325,0.222c-0.098-0.074-0.113-0.186-0.13-0.295c-0.099-0.616-0.461-1.026-1.008-1.292
		c-0.252-0.121-0.496-0.239-0.405-0.594c0.026-0.1-0.025-0.138-0.128-0.131c-0.365,0.021-0.516-0.191-0.534-0.521
		c-0.014-0.262,0.091-0.476,0.354-0.554c0.306-0.089,0.519,0.061,0.664,0.324c0.017,0.029,0.039,0.048,0.069,0.056
		c0.336-0.595-0.143-1.406-0.891-1.507c-0.094-0.014-0.19,0.005-0.285-0.011c-0.293-0.05-0.445-0.205-0.291-0.495
		c0.138-0.259,0.054-0.414-0.163-0.551c-0.067-0.042-0.128-0.095-0.177-0.158c-0.185-0.236-0.189-0.474,0.046-0.67
		c0.226-0.187,0.438-0.095,0.634,0.085c0.124,0.112,0.108,0.29,0.208,0.417c0.462-0.611,0.103-1.515-0.686-1.743
		c-0.076-0.023-0.157-0.024-0.234-0.041c-0.374-0.084-0.414-0.185-0.2-0.518c0.077-0.12,0.169-0.23,0.252-0.346
		c0.586-0.822,0.511-1.401-0.265-2.061c-0.436-0.37-0.545-0.656-0.404-1.064c0.053-0.15,0.111-0.32,0.292-0.34
		c0.216-0.023,0.234,0.176,0.282,0.32c0.098,0.293,0.246,0.538,0.561,0.667c0.03-1.561,0.662-1.659,1.571-1.271
		c-0.052-0.584-0.612-1.01-1.184-0.896c-0.254,0.051-0.474,0.17-0.665,0.348c-0.121,0.114-0.209,0.348-0.397,0.285
		c-0.219-0.074-0.206-0.331-0.248-0.528c-0.061-0.292-0.065-0.564,0.192-0.783c0.105-0.087,0.113-0.22,0.104-0.351
		c-0.007-0.095-0.012-0.19-0.01-0.285c0.015-0.942,0.537-1.25,1.37-0.76c0.062-0.333-0.105-0.547-0.29-0.762
		c-0.436-0.507-0.412-0.656,0.182-0.978c0.141-0.077,0.144-0.188,0.167-0.311c0.18-0.947,0.522-1.165,1.491-0.916
		c-0.033-0.288-0.237-0.445-0.393-0.631c-0.295-0.351-0.235-0.654,0.196-0.803c0.238-0.083,0.351-0.225,0.453-0.437
		c0.333-0.691,0.647-0.859,1.418-0.773c-0.119-0.296-0.461-0.541-0.199-0.895c0.833-0.919,1.848-1.616,2.878-2.283
		c0.995-0.643,2.042-1.197,3.146-1.634c0.223-0.088,0.269-0.242,0.247-0.449c0.396,0.354,0.807,0.166,1.239,0.07
		C24.859,11.984,25.271,11.696,25.741,11.901z"/>
	<path fill-rule="evenodd" clip-rule="evenodd" fill="#EDEDED" d="M16.922,16.374c-0.04,0.289,0.043,0.523,0.274,0.713
		c0.093,0.077,0.196,0.203,0.122,0.329c-0.093,0.159-0.22,0.03-0.331-0.009c-0.495-0.175-0.911,0.041-1.176,0.653
		c-0.12,0.278-0.166,0.54-0.583,0.532c-0.269-0.005-0.333,0.345-0.126,0.569c0.192,0.208,0.43,0.382,0.488,0.684
		c0.016,0.085,0.104,0.192-0.007,0.254c-0.051,0.028-0.147-0.011-0.217-0.037c-0.82-0.306-1.254-0.022-1.292,0.856
		c-0.01,0.237,0.02,0.467-0.352,0.342c-0.136-0.046-0.229,0.092-0.282,0.207c-0.078,0.166-0.015,0.31,0.115,0.424
		c0.279,0.247,0.511,0.52,0.513,0.919c0,0.104,0.036,0.235-0.104,0.284c-0.118,0.041-0.149-0.083-0.222-0.133
		c-0.185-0.125-0.334-0.396-0.604-0.263c-0.281,0.14-0.448,0.402-0.484,0.714c-0.023,0.201,0.001,0.41,0.026,0.613
		c0.012,0.095,0.064,0.207-0.032,0.257c-0.63,0.34-0.194,0.81-0.191,1.328c0.274-0.331,0.488-0.59,0.823-0.716
		c0.717-0.274,1.62,0.229,1.644,0.938c0.003,0.09,0,0.215-0.054,0.267c-0.086,0.081-0.166-0.027-0.237-0.084
		c-0.287-0.232-0.601-0.385-0.949-0.158c-0.384,0.251-0.414,0.646-0.36,1.058c0.017,0.126,0.171,0.274-0.035,0.368
		c-0.153,0.067-0.264-0.038-0.375-0.134c-0.223-0.191-0.384-0.416-0.447-0.706c-0.018-0.084,0.016-0.218-0.115-0.228
		c-0.145-0.01-0.15,0.128-0.193,0.228c-0.161,0.372-0.078,0.677,0.237,0.924c0.999,0.781,1.079,1.386,0.317,2.401
		c-0.038,0.049-0.057,0.116-0.101,0.159c-0.335,0.337-0.23,0.405,0.202,0.435c0.769,0.053,1.34,1.1,1.017,1.792
		c-0.083,0.178-0.083,0.178-0.381,0.304c-0.1-0.176,0.019-0.412-0.167-0.57c-0.177-0.148-0.363-0.236-0.54-0.043
		c-0.155,0.17-0.165,0.368,0.05,0.528c0.089,0.064,0.16,0.176,0.257,0.204c0.341,0.101,0.257,0.289,0.126,0.498
		c-0.064,0.103-0.206,0.203-0.111,0.331c0.086,0.116,0.239,0.116,0.388,0.107c0.614-0.039,1.346,0.656,1.32,1.264
		c-0.01,0.249-0.059,0.509-0.37,0.643c-0.085-0.34-0.197-0.713-0.656-0.563c-0.298,0.098-0.304,0.398-0.213,0.646
		c0.135,0.369,0.416,0.233,0.658,0.125c0.104,0.104,0.042,0.191,0.003,0.272c-0.142,0.286-0.015,0.412,0.252,0.523
		c0.755,0.315,1.186,0.864,1.146,1.718c0,0.022,0.001,0.045,0.003,0.067c-0.011,0.113-0.068,0.209-0.106,0.313
		c-0.161,0.44-0.097,0.668,0.297,0.93c0.398,0.266,0.821,0.476,1.319,0.476c0.141-0.001,0.288-0.004,0.401,0.107
		c-0.225,0.439-0.68,0.67-0.963,1.063c-0.105,0.146-0.292,0.047-0.382-0.119c-0.069-0.126-0.088-0.268-0.125-0.405
		c-0.208-0.766-0.953-1.072-1.644-0.677c-0.11,0.063-0.206,0.147-0.316,0.209c-0.384,0.214-0.629,0.164-0.876-0.231
		c-0.219-0.351-0.505-0.593-0.886-0.75c-0.523-0.217-0.561-0.34-0.333-0.87c0.063-0.144,0.139-0.282,0.181-0.436
		c0.015-0.046,0.035-0.088,0.055-0.13c0.384-0.733,0.036-1.38-0.788-1.413c-0.424-0.017-0.659-0.117-0.707-0.606
		c-0.03-0.313-0.169-0.626-0.2-0.957c-0.05-0.55,0.24-0.822,0.795-0.722c0.099,0.019,0.215,0.128,0.292-0.01
		c0.061-0.108-0.017-0.214-0.083-0.302c-0.149-0.197-0.356-0.302-0.593-0.361c-0.197-0.049-0.409-0.063-0.568-0.212
		c-0.09-2.736,0.217-5.421,1.048-8.037c0.046-0.146,0.059-0.312,0.186-0.424c0.127-0.241,0.168-0.515,0.285-0.76l0,0
		c0.133-0.314,0.238-0.64,0.38-0.951c0.566-1.556,1.472-2.914,2.463-4.222C15.376,17.855,16.109,17.077,16.922,16.374z"/>
	<path fill-rule="evenodd" clip-rule="evenodd" fill="#C2C2C2" d="M17.394,48.22c-0.775-0.715-1.563-1.42-2.188-2.279
		c0.115-0.348,0.694-0.685,1.218-0.68c0.479,0.003,0.893,0.162,1.199,0.56c0.377,0.489,0.387,0.49,0.884,0.155
		c0.441-0.3,0.928-0.328,1.411-0.202c0.474,0.124,0.719,0.48,0.769,0.974c0.014,0.135,0.021,0.319,0.18,0.357
		c0.169,0.039,0.222-0.147,0.301-0.255c0.19-0.259,0.402-0.489,0.704-0.618c0.345-0.136,0.687-0.191,1.017,0.037
		c0.11,0.186-0.042,0.252-0.157,0.327c-0.093,0.06-0.206,0.081-0.303,0.135c-0.286,0.161-0.547,0.357-0.515,0.728
		c0.031,0.381,0.323,0.518,0.649,0.588c0.294,0.063,0.587,0.13,0.871,0.232c0.304,0.109,0.497,0.053,0.499-0.317
		c0-0.175,0.043-0.345,0.103-0.509c0.135-0.361,0.442-0.547,0.749-0.731c0.088-0.047,0.178-0.088,0.274-0.113
		c0.257-0.047,0.505-0.044,0.713,0.147c0.114,0.277-0.115,0.317-0.279,0.393c-0.563,0.259-0.779,0.492-0.708,0.822
		c0.102,0.468,0.486,0.588,0.888,0.66c0.28,0.05,0.564,0.066,0.837,0.16c0.302,0.103,0.447-0.024,0.468-0.334
		c0.021-0.291,0.136-0.55,0.303-0.789c0.79-0.862,1.958-0.726,2.512,0.3c0.111,0.206,0.177,0.446,0.444,0.135
		c0.531-0.62,1.177-0.656,1.883-0.349c0.136,0.084,0.254,0.192,0.346,0.319c0.249,0.345,0.438,0.743,0.87,0.916
		c0.013,0.253-0.029,0.504-0.03,0.757c-0.001,0.394-0.226,0.577-0.595,0.592c-0.663,0.024-1.327,0.006-1.987,0.089
		c-0.254,0.031-0.495-0.084-0.731-0.178c-0.334-0.131-0.671-0.173-1.017-0.051c-0.124,0.048-0.249,0.092-0.378,0.119
		c-0.574,0.085-1.077-0.01-1.533-0.43c-0.362-0.334-0.838-0.378-1.288-0.142c-0.577,0.303-1.061,0.264-1.542-0.224
		c-0.391-0.395-0.898-0.525-1.444-0.288c-0.598,0.259-1.14,0.155-1.649-0.229c-0.203-0.155-0.428-0.28-0.695-0.271
		c-0.957,0.035-1.897-0.015-2.774-0.46C17.593,48.233,17.49,48.224,17.394,48.22z"/>
	<path fill-rule="evenodd" clip-rule="evenodd" fill="#EBEBEB" d="M45.151,19.987c0.114-0.024,0.271,0.064,0.332-0.093
		c0.04-0.102-0.082-0.156-0.132-0.231c-0.226-0.337-0.481-0.558-0.933-0.374c-0.193,0.079-0.288-0.038-0.232-0.259
		c0.044-0.174,0.008-0.336-0.132-0.476c-0.192-0.193-0.404-0.267-0.63-0.101c-0.228,0.166-0.233,0.392-0.081,0.624
		c0.057,0.086,0.206,0.153,0.131,0.272c-0.077,0.12-0.238,0.084-0.351,0.056c-0.354-0.085-0.623-0.285-0.729-0.655
		c0.116-0.096,0.141-0.242,0.205-0.367c0.343-0.68,1.053-0.941,1.744-0.641c0.08,0.035,0.149,0.12,0.256,0.072
		c-0.34-0.526-1.192-0.652-1.729-0.262c-0.145,0.105-0.244,0.305-0.474,0.249c0.338-0.508,0.235-0.826-0.373-1.019
		c-0.294-0.093-0.527-0.352-0.716-0.604c-0.191-0.254-0.346-0.458-0.729-0.311c-0.217,0.083-0.246-0.15-0.281-0.333
		c-0.079-0.403-0.445-0.615-0.807-0.489c-0.332,0.114-0.419,0.394-0.222,0.715c0.053,0.087,0.208,0.158,0.113,0.272
		c-0.086,0.103-0.238,0.068-0.356,0.025c-0.687-0.251-1.129-1.031-0.641-1.793c0.322-0.503,0.325-0.512-0.272-0.645
		c-0.474-0.105-0.823-0.317-0.849-0.858c1.297,0.305,2.56,0.718,3.767,1.274c1.157,0.533,2.295,1.107,3.364,1.807
		c0.149,0.097,0.301,0.177,0.477,0.056c0.362,0.28,0.767,0.503,1.114,0.8c0.243,0.208,0.486,0.253,0.771,0.125
		c-0.115,0.308-0.146,0.595,0.205,0.782c-0.158,0.167-0.384,0.118-0.576,0.177c-0.616,0.188-0.933,0.654-0.851,1.279
		c0.143,0.023,0.128-0.107,0.164-0.176c0.375-0.729,1.189-0.964,1.892-0.545c0.124,0.074,0.222,0.254,0.411,0.126
		c0.17,0.081,0.287,0.215,0.386,0.37c0.021,0.061,0.042,0.123,0.036,0.186c-0.063,0.681,0.292,1.057,0.901,1.272
		c0.658,0.231,0.699,0.343,0.283,0.887c-0.359,0.468-0.435,0.933-0.141,1.452c0.078,0.137,0.147,0.284,0.147,0.447
		c-0.001,0.241-0.153,0.481-0.36,0.378c-0.631-0.316-1.219-0.134-1.822,0.036c0.237-0.405,0.063-0.608-0.335-0.734
		c-0.391-0.125-0.649-0.404-0.802-0.783c0.045-0.044,0.083-0.093,0.111-0.15c0.487-1.006,1.057-1.222,2.097-0.797
		c-0.091-0.32-0.212-0.436-0.533-0.515c-0.613-0.15-1.159,0.077-1.508,0.615c-0.068,0.106-0.057,0.299-0.262,0.278
		c-0.05-0.355-0.205-0.245-0.353-0.071c-0.263,0.308-0.422,0.316-0.559-0.114c-0.134-0.418-0.528-0.457-0.866-0.36
		c-0.335,0.097-0.536,0.381-0.477,0.766c0.021,0.135,0.147,0.303-0.003,0.383c-0.15,0.081-0.285-0.076-0.403-0.177
		c-0.137-0.116-0.214-0.27-0.284-0.43c0.057-0.053,0.11-0.11,0.151-0.177c0.569-0.93,0.95-1.09,1.965-0.825
		C45.372,20.227,45.089,20.194,45.151,19.987z"/>
	<path fill-rule="evenodd" clip-rule="evenodd" fill="#E5E5E5" d="M10.365,33.105c0.392,0.027,0.78,0.069,1.107,0.32
		c0.215,0.164,0.337,0.377,0.312,0.65c-0.013,0.131-0.051,0.274-0.235,0.161c-0.283-0.176-0.57-0.326-0.835,0.008
		c-0.28,0.351-0.065,0.716,0.021,1.065c0.04,0.156,0.197,0.268,0.149,0.471c-0.103,0.434,0.231,0.37,0.466,0.358
		c0.494-0.025,0.841,0.167,1.074,0.604c0.209,0.39,0.159,0.721-0.16,1.02c-0.131-0.089-0.19-0.246-0.32-0.335
		c-0.127-0.089-0.259-0.104-0.383,0.005c-0.075,0.066-0.111,0.155-0.075,0.251c0.058,0.158,0.192,0.184,0.341,0.175
		c0.151-0.008,0.268-0.17,0.437-0.098c0.023,0.239-0.116,0.425-0.216,0.618c-0.165,0.319-0.125,0.52,0.258,0.622
		c0.428,0.114,0.756,0.37,0.971,0.775c0.226,0.426,0.451,0.473,0.828,0.173c0.352-0.28,0.704-0.432,1.172-0.301
		c0.459,0.128,0.801,0.435,0.883,0.915c0.032,0.185,0.03,0.44,0.212,0.484c0.212,0.051,0.273-0.217,0.368-0.367
		c0.184-0.297,0.523-0.4,0.752-0.639c0.266-0.206,0.565-0.134,0.858-0.098c0.158,0.045,0.281,0.149,0.37,0.28
		c1.169,1.707,2.91,2.545,4.793,3.174c0.283,0.095,0.575,0.166,0.848,0.291c0.063,0.028,0.088,0.084,0.086,0.153
		c-0.145,0.156-0.37,0.156-0.536,0.281c-0.392,0.291-0.602,0.673-0.634,1.156c-0.301,0.354-0.506,0.371-0.712,0.011
		c-0.096-0.171-0.16-0.194-0.317-0.116c-0.195,0.095-0.398,0.081-0.598,0.003c-0.257-0.101-0.5-0.225-0.534-0.539
		c-0.025-0.237,0.078-0.437,0.284-0.559c0.257-0.154,0.528-0.195,0.807-0.039c0.143,0.078,0.226,0.217,0.376,0.338
		c0.068-0.16,0.007-0.277-0.065-0.394c-0.438-0.755-1.667-0.62-2.058,0.144c-0.082,0.161-0.156,0.388-0.399,0.338
		c-0.245-0.049-0.198-0.293-0.239-0.468c-0.114-0.474-0.326-0.856-0.85-0.969c-0.594-0.092-1.031,0.165-1.417,0.593
		c-0.396,0.438-0.608,0.404-0.773-0.166c-0.223-0.769-0.771-1.027-1.651-0.696c-0.508,0.191-0.917,0.173-1.311-0.184
		c-0.334-0.303-0.74-0.405-1.172-0.441C11.217,39.296,10.323,36.319,10.365,33.105z"/>
	<path fill-rule="evenodd" clip-rule="evenodd" fill="#818181" d="M51.924,43.184c-1.799,2.982-4.258,5.314-7.179,7.161
		c-3.259,2.061-6.836,3.144-10.691,3.301c-0.934,0.057-1.868,0.059-2.802,0c-0.701,0.012-1.396-0.039-2.085-0.175
		c0.04-0.514,0.462-0.596,0.83-0.687c0.412-0.103,0.833-0.025,1.184,0.215c0.4,0.274,0.797,0.308,1.256,0.183
		c0.395-0.106,0.805-0.166,1.211-0.226c0.281-0.041,0.46-0.15,0.533-0.445c0.08-0.319,0.263-0.394,0.56-0.191
		c0.502,0.34,0.981,0.315,1.477-0.069c0.224-0.175,0.424-0.313,0.725-0.187c0.171,0.072,0.346-0.003,0.495-0.098
		c0.371-0.238,0.779-0.339,1.213-0.361c0.288-0.016,0.521-0.103,0.613-0.419c0.057-0.195,0.188-0.256,0.404-0.198
		c0.81,0.22,1.153,0.063,1.496-0.667c0.104-0.221,0.248-0.293,0.444-0.14c0.275,0.217,0.526,0.146,0.783-0.022
		c0.318-0.208,0.664-0.367,1.005-0.533c0.311-0.15,0.507-0.365,0.495-0.734c-0.009-0.259,0.069-0.498,0.204-0.72
		c0.186-0.292,0.469-0.438,0.789-0.529c0.276-0.048,0.541,0,0.799,0.1c0.293,0.165,0.571,0.307,0.759-0.145
		c0.067-0.16,0.267-0.149,0.414-0.2c0.655-0.228,0.89-0.592,0.825-1.279c-0.011-0.111-0.041-0.228,0.074-0.3
		c0.125-0.08,0.263-0.05,0.351,0.044c0.331,0.354,0.564,0.165,0.819-0.104c0.295-0.312,0.532-0.671,0.827-0.978
		c0.51-0.533,0.982-1.114,1.62-1.512C51.537,43.164,51.708,43.001,51.924,43.184z"/>
	<path fill-rule="evenodd" clip-rule="evenodd" fill="#4F4F4F" d="M6.994,3.623c0.305-0.569,0.81-0.934,1.361-1.207
		c2.41-1.194,4.949-1.738,7.643-1.443c0.319,0.035,0.62,0.144,0.86,0.362c1.028,0.936,1.964,1.957,2.8,3.068
		c-0.137,0.22-0.364,0.215-0.579,0.22c-0.28,0.008-0.56,0.011-0.833,0.078c-0.266-0.245-0.521-0.503-0.797-0.735
		c-0.989-0.831-1.497-0.837-2.619-0.049C13.13,3.851,11.431,3.898,9.73,3.888C8.974,3.884,8.219,3.894,7.467,3.789
		C7.297,3.765,7.116,3.779,6.994,3.623z"/>
	<path fill-rule="evenodd" clip-rule="evenodd" fill="#515151" d="M54.745,9.451c-0.128-0.112-0.247-0.235-0.384-0.334
		c-0.477-0.341-0.979-0.445-1.531-0.164c-0.146,0.073-0.262,0.232-0.456,0.196c-0.453-0.07-0.908-0.063-1.363-0.028
		c-0.154,0.011-0.315,0.063-0.448-0.065c0.603-0.777,1.292-1.472,1.999-2.151c0.609-0.586,1.404-0.58,2.144-0.564
		c2.147,0.046,4.236,0.433,6.184,1.386c0.71,0.349,1.392,0.752,1.744,1.522c-0.21,0.198-0.475,0.148-0.722,0.149
		c-2.057,0.005-4.115,0.003-6.172,0.002C55.407,9.399,55.075,9.406,54.745,9.451z"/>
	<path fill-rule="evenodd" clip-rule="evenodd" fill="#909090" d="M44.199,48.215c-0.138,0.238-0.226,0.489-0.189,0.77
		c0.042,0.313-0.121,0.513-0.373,0.651c-0.47,0.259-0.948,0.504-1.418,0.763c-0.24,0.131-0.445,0.131-0.634-0.09
		c-0.157-0.183-0.27-0.197-0.333,0.087c-0.154,0.678-0.928,1.067-1.53,0.751c-0.265-0.14-0.359-0.137-0.373,0.181
		c-0.017,0.389-0.359,0.38-0.598,0.393c-0.484,0.027-0.931,0.116-1.335,0.402c-0.109,0.077-0.324,0.167-0.391,0.117
		c-0.376-0.283-0.563-0.014-0.824,0.194c-0.463,0.369-1.135,0.345-1.549-0.039c-0.241-0.223-0.372-0.098-0.366,0.12
		c0.012,0.441-0.227,0.515-0.585,0.559c-0.451,0.053-0.904,0.131-1.339,0.259c-0.447,0.131-0.804,0.061-1.192-0.201
		c-0.712-0.483-1.499-0.325-2.004,0.34c-1.899-0.239-3.752-0.651-5.509-1.435c-0.019-0.27,0.182-0.301,0.368-0.325
		c0.34-0.042,0.683,0.017,0.949,0.219c0.464,0.352,0.963,0.397,1.514,0.335c1.251-0.14,2.511-0.053,3.767-0.089
		c0.418-0.013,0.708-0.09,0.748-0.558c0.198-0.258,0.374-0.082,0.508,0.056c0.541,0.557,1.142,0.507,1.778,0.215
		c0.071-0.033,0.148-0.106,0.214-0.09c0.598,0.143,0.907-0.313,1.292-0.613c0.358-0.168,0.73-0.185,1.107-0.082
		c0.289,0.076,0.559,0.093,0.799-0.124c0.046-0.042,0.106-0.084,0.167-0.084c0.627,0.005,1.186-0.222,1.758-0.45
		c0.247-0.1,0.447-0.194,0.603-0.4c0.292-0.384,0.659-0.629,1.161-0.618c0.175,0.003,0.341,0.054,0.504,0.108
		c0.262,0.087,0.494,0.073,0.672-0.17c0.134-0.183,0.335-0.211,0.542-0.235c0.394-0.045,0.773-0.217,0.951-0.543
		C43.348,48.056,43.739,48.085,44.199,48.215z"/>
	<path fill-rule="evenodd" clip-rule="evenodd" fill="#414141" d="M54.745,9.451c0.066-0.314,0.321-0.198,0.5-0.199
		c2.462-0.007,4.925-0.004,7.388-0.004c0.295,0.461,0.168,0.928,0.022,1.397c-0.107,0.339-0.181,0.691-0.389,0.99
		c-1.936-0.093-3.872-0.08-5.807-0.006C55.888,10.902,55.316,10.177,54.745,9.451z"/>
	<path fill-rule="evenodd" clip-rule="evenodd" fill="#D1D1D1" d="M12.649,42.136c0.447-0.243,0.82-0.011,1.122,0.253
		c0.444,0.389,0.825,0.439,1.408,0.225c0.843-0.311,1.459-0.117,1.709,0.773c0.156,0.562,0.211,0.568,0.578,0.143
		c0.413-0.479,0.906-0.724,1.546-0.634c0.217,0.151,0.173,0.282-0.041,0.378c-0.187,0.085-0.391,0.13-0.565,0.242
		c-0.503,0.328-0.562,0.953-0.083,1.312c0.427,0.319,0.855,0.654,1.42,0.724c0.317,0.039,0.614,0.176,0.878,0.348
		c0.383,0.247,0.853,0.211,1.244,0.419c-0.31,0.224-0.561,0.504-0.752,0.833c-0.067,0.116-0.136,0.224-0.29,0.191
		c-0.151-0.031-0.153-0.168-0.206-0.284c-0.123-0.271-0.006-0.595-0.232-0.848c-0.452-0.503-1.346-0.535-1.931-0.05
		c-0.432,0.36-0.53,0.363-0.825-0.134c-0.506-0.854-1.679-0.837-2.423-0.086c-0.712-0.755-1.278-1.614-1.808-2.501
		C13.141,43.009,12.898,42.571,12.649,42.136z"/>
	<path fill-rule="evenodd" clip-rule="evenodd" fill="#B1B1B1" d="M17.394,48.22c0.147-0.157,0.331-0.131,0.478-0.042
		c0.726,0.448,1.529,0.452,2.334,0.412c0.403-0.021,0.748,0.073,1.053,0.328c0.443,0.367,0.925,0.45,1.452,0.203
		c0.695-0.324,1.27-0.081,1.749,0.421c0.331,0.348,0.676,0.381,1.061,0.169c0.702-0.387,1.317-0.313,1.875,0.275
		c0.343,0.362,0.804,0.188,1.217,0.228c-0.076,0.418-0.39,0.699-0.606,1.037c-0.051,0.078-0.164,0.112-0.257,0.101
		c-0.442-0.063-0.881,0.042-1.325-0.005c-0.637-0.067-1.04-0.349-1.087-1.001c-0.05-0.036-0.093-0.04-0.101-0.012
		c-0.179,0.67-0.61,0.862-1.255,0.679c-0.104-0.028-0.22-0.008-0.331-0.009c-0.955-0.011-1.203-0.211-1.412-1.231
		c-0.268,0.479-0.247,1.095-0.854,1.21C19.944,50.22,18.598,49.322,17.394,48.22z"/>
	<path fill-rule="evenodd" clip-rule="evenodd" fill="#E2E2E2" d="M47.429,23.5c0.54-0.374,1.09-0.542,1.71-0.163
		c0.266,0.163,0.383-0.008,0.37-0.266c-0.005-0.104-0.062-0.214-0.12-0.305c-0.395-0.62-0.308-1.179,0.164-1.724
		c0.345-0.397,0.318-0.441-0.196-0.59c-0.888-0.258-1.237-0.835-0.974-1.611c1.484,1.342,2.823,2.804,3.795,4.571
		c-0.36,0.113-0.729,0.193-1.088,0.302c-0.725,0.219-1.072,0.849-0.88,1.582c0.065,0.194,0.201,0.351,0.277,0.54
		c0.071,0.176,0.148,0.369-0.013,0.522c-0.163,0.157-0.352,0.08-0.514-0.03c-0.186-0.126-0.378-0.217-0.607-0.206
		c-0.164-0.018-0.232-0.149-0.306-0.268c-0.406-0.646-0.891-1.211-1.55-1.619c-0.156-0.097-0.382-0.182-0.351-0.445
		C47.297,23.748,47.313,23.574,47.429,23.5z"/>
	<path fill-rule="evenodd" clip-rule="evenodd" fill="#AAAAAA" d="M54.547,31.589c0.057,1.103,0.007,2.203-0.094,3.3
		c-0.007,0.074-0.05,0.145-0.078,0.217c-0.491,0.347-0.836,0.806-1.054,1.361c-0.214,0.544-0.399,1.107-0.933,1.446
		c-0.103,0.053-0.212,0.089-0.313,0.147c-0.476,0.307-0.629,0.752-0.574,1.297c0.076,0.754-0.201,1.102-0.952,1.196
		c-0.185,0.024-0.357,0.133-0.552,0.077c-0.126-0.181-0.012-0.33,0.07-0.478c0.1-0.177,0.204-0.354,0.294-0.538
		c0.459-0.938,0.38-1.276-0.452-1.93c-0.096-0.077-0.245-0.139-0.184-0.289c0.055-0.134,0.205-0.12,0.331-0.117
		c0.046,0.004,0.092,0.015,0.137,0.03c0.336,0.128,0.6,0.334,0.759,0.668c0.143,0.298,0.307,0.237,0.418-0.015
		c0.221-0.505,0.477-0.992,0.699-1.492c0.281-0.634-0.088-1.074-0.798-1.037c-0.21,0.013-0.468,0.114-0.485-0.25
		c0.026-0.129,0.111-0.215,0.218-0.282c0.268-0.144,0.548-0.229,0.857-0.175c0.369,0.064,0.489-0.128,0.459-0.456
		c-0.025-0.265-0.089-0.525-0.058-0.795c0.044-0.39,0.182-0.727,0.497-0.977C53.334,32.151,53.981,31.951,54.547,31.589z"/>
	<path fill-rule="evenodd" clip-rule="evenodd" fill="#A2A2A2" d="M21.385,50.982c0.379-0.279,0.527-0.68,0.632-1.121
		c0.026-0.113,0.111-0.343,0.317-0.273c0.171,0.057,0.092,0.248,0.097,0.379c0.022,0.589,0.321,0.888,0.909,0.912
		c0.376,0.015,0.754-0.042,1.128,0.08c0.257,0.082,0.42-0.069,0.499-0.312c0.039-0.119,0.046-0.258,0.114-0.354
		c0.077-0.108,0.106-0.323,0.267-0.293c0.172,0.033,0.114,0.23,0.127,0.367c0.078,0.812,0.462,0.79,1.342,0.89
		c0.061,0.006,0.129-0.027,0.187-0.014c0.902,0.225,1.205-0.479,1.607-1.029c0.095-0.033,0.189-0.065,0.284-0.098
		c0.264-0.02,0.234,0.156,0.185,0.308c-0.075,0.233-0.256,0.475,0.027,0.676c0.262,0.188,0.651,0.249,0.843,0.066
		c0.477-0.451,0.832-0.189,1.225,0.066c0.08,0.137-0.014,0.223-0.092,0.313c-0.002,0.758-0.002,0.752-0.747,0.76
		c-0.646,0.006-1.302,0.083-1.934,0.056c-0.679-0.03-1.354-0.044-2.017,0.053c-0.572,0.083-1.019-0.039-1.482-0.378
		c-0.449-0.326-0.942-0.276-1.247,0C22.872,51.746,22.113,51.398,21.385,50.982z"/>
	<path fill-rule="evenodd" clip-rule="evenodd" fill="#2E2E2E" d="M56.459,11.629c0.158-0.2,0.38-0.197,0.604-0.197
		c1.534,0.001,3.068,0.001,4.602,0c0.225,0,0.445,0.001,0.601,0.203c-0.378,0.898-0.904,1.687-1.713,2.255
		c-1.024,0.72-1.63,0.669-2.479-0.232C57.479,13.028,56.937,12.354,56.459,11.629z"/>
	<path fill-rule="evenodd" clip-rule="evenodd" fill="#8C8C8C" d="M52.087,37.949c0.069-0.11,0.182-0.089,0.286-0.094
		c0.546-0.206,1.12,0.044,1.342,0.586c-0.422,1.464-0.853,2.924-1.538,4.294c-0.077,0.153-0.169,0.299-0.255,0.448
		c-0.568,0.114-0.932,0.518-1.338,0.89c-0.672,0.615-1.161,1.388-1.82,2.011c-0.278,0.262-0.457,0.158-0.653-0.082
		c-0.078-0.093-0.177-0.206-0.319-0.12c-0.086,0.052-0.018,0.139-0.002,0.213c0.144,0.685-0.239,1.261-0.96,1.447
		c-0.113,0.03-0.282-0.037-0.325,0.127c-0.152,0.588-0.455,0.43-0.785,0.168c0.234-0.271,0.318-0.562,0.118-0.89
		c-0.017-0.095-0.011-0.184,0.047-0.263c0.197-0.141,0.354-0.013,0.515,0.078c0.334,0.187,0.569,0.027,0.769-0.226
		c0.204-0.261,0.01-0.425-0.153-0.603c-0.297-0.319-0.278-0.387,0.14-0.581c0.196-0.021,0.379,0.025,0.554,0.108
		c0.32,0.203,0.61,0.283,0.778-0.181c0.052-0.145,0.192-0.197,0.313-0.271c0.715-0.432,0.83-0.711,0.618-1.502
		c-0.054-0.2-0.095-0.384,0.205-0.4c0.303,0.123,0.553,0.126,0.655-0.264c0.053-0.2,0.242-0.283,0.389-0.398
		c0.594-0.467,0.655-0.893,0.224-1.492c-0.09-0.123-0.246-0.259-0.086-0.409c0.13-0.122,0.312-0.119,0.49-0.051
		c0.214,0.083,0.358,0.368,0.625,0.268c0.232-0.087,0.207-0.375,0.332-0.553c0.128-0.185,0.332-0.292,0.473-0.463
		c0.488-0.592,0.342-1.134-0.378-1.385C52.147,38.292,51.92,38.247,52.087,37.949z"/>
	<path fill-rule="evenodd" clip-rule="evenodd" fill="#353535" d="M7.893,7.25c-0.396-0.513-0.691-1.077-0.85-1.709
		c0.154-0.232,0.4-0.241,0.636-0.242c1.726-0.01,3.452-0.011,5.178,0.001c0.251,0.001,0.514,0.006,0.681,0.252
		c-0.488,0.566-0.81,1.26-1.371,1.771c-0.489-0.162-0.995-0.12-1.496-0.117C9.745,7.208,8.818,7.172,7.893,7.25z"/>
	<path fill-rule="evenodd" clip-rule="evenodd" fill="#434343" d="M6.994,3.623c2.438,0.204,4.881,0.074,7.321,0.117
		c0.178,0.003,0.43-0.129,0.515,0.176c-0.211,0.26-0.422,0.52-0.633,0.78c-0.225,0.128-0.464,0.047-0.698,0.046
		c-1.972-0.003-3.944,0-5.917-0.001c-0.253,0-0.498,0.086-0.751,0.068C6.648,4.381,6.748,3.992,6.994,3.623z"/>
	<path fill-rule="evenodd" clip-rule="evenodd" fill="#414141" d="M6.831,4.809c0.145-0.213,0.364-0.22,0.591-0.22
		c2.057,0.001,4.115,0.004,6.172-0.003c0.213-0.001,0.402,0.076,0.603,0.11c-0.185,0.313-0.405,0.597-0.659,0.855
		c-0.288-0.093-0.583-0.111-0.883-0.109c-1.623,0.006-3.246,0.006-4.869,0c-0.254-0.001-0.5,0.021-0.743,0.098
		C6.898,5.318,6.834,5.073,6.831,4.809z"/>
	<path fill-rule="evenodd" clip-rule="evenodd" fill="#C3C3C3" d="M52.936,24.938c0.445,0.774,0.712,1.617,0.948,2.47
		c-0.169,0.461-0.168,0.918-0.042,1.393c0.145,0.542-0.047,0.771-0.596,0.674c-0.359-0.063-0.683,0.124-1.028,0.062
		c-0.182-0.395,0.081-0.75,0.107-1.126c0.011-0.152,0.096-0.298,0.106-0.458c0.017-0.247-0.007-0.477-0.266-0.601
		c-0.267-0.128-0.488-0.03-0.691,0.146c-0.122,0.105-0.189,0.249-0.268,0.385c-0.079,0.139-0.162,0.28-0.365,0.208
		c-0.345-0.379-0.138-0.742,0.055-1.087c0.132-0.236,0.334-0.421,0.579-0.549c0.397-0.167,0.792-0.272,1.228-0.114
		c0.266,0.098,0.354-0.022,0.242-0.283c-0.093-0.215-0.195-0.433-0.199-0.671C52.743,25.218,52.67,25.001,52.936,24.938z"/>
	<path fill-rule="evenodd" clip-rule="evenodd" fill="#272727" d="M7.893,7.25C8.04,7.074,8.24,7.06,8.451,7.06
		c1.057,0.003,2.115,0,3.172,0.003c0.218,0,0.455-0.019,0.544,0.259c-0.284,0.435-0.631,0.813-0.999,1.18
		c-0.422,0.421-0.899,0.473-1.432,0.282C8.937,8.497,8.341,7.961,7.893,7.25z"/>
	<path fill-rule="evenodd" clip-rule="evenodd" fill="#B4B4B4" d="M52.185,29.492c0.391-0.099,0.758-0.262,1.194-0.116
		c0.331,0.11,0.489-0.11,0.359-0.473c-0.126-0.352-0.154-0.709-0.117-1.07c0.017-0.172,0.089-0.337,0.263-0.426
		c0.375,1.37,0.646,2.756,0.663,4.182c-0.433,0.555-1.116,0.659-1.698,0.944c-0.164-0.371,0.01-0.705,0.128-1.04
		c0.074-0.206,0.178-0.403,0.231-0.619c0.062-0.247,0.06-0.475-0.168-0.639c-0.246-0.179-0.5-0.164-0.753-0.01
		c-0.122,0.075-0.216,0.185-0.334,0.263c-0.138,0.093-0.28,0.171-0.402-0.025C51.541,29.919,51.719,29.647,52.185,29.492z"/>
	<path fill-rule="evenodd" clip-rule="evenodd" fill="#191919" d="M46.754,16.827c-0.184,0.348-0.382,0.344-0.675,0.088
		c-0.308-0.268-0.669-0.472-1.008-0.704c-0.111-0.075-0.274-0.115-0.202-0.31c0.479-0.569,0.957-1.138,1.435-1.707
		c0.658-0.164,1.302-0.188,1.905,0.191C47.738,15.208,47.173,15.973,46.754,16.827z"/>
	<path fill-rule="evenodd" clip-rule="evenodd" fill="#CECECE" d="M52.936,24.938c-0.225,0.423,0.008,0.781,0.16,1.151
		c0.049,0.122,0.188,0.242,0.042,0.382c-0.104,0.1-0.241,0.1-0.351,0.035c-0.435-0.251-0.85-0.086-1.269,0.038
		c-0.007-0.408,0.023-0.81,0.163-1.201c0.11-0.309,0.188-0.632-0.203-0.814c-0.297-0.137-0.683,0.035-0.88,0.372
		c-0.065,0.11-0.083,0.241-0.15,0.348c-0.089,0.145-0.194,0.277-0.353,0.062c-0.214-0.443-0.087-0.842,0.199-1.186
		c0.488-0.589,1.165-0.721,1.887-0.711C52.424,23.925,52.803,24.37,52.936,24.938z"/>
	<path fill-rule="evenodd" clip-rule="evenodd" fill="#0D0D0D" d="M25.741,11.901c-0.567,0.056-1.114,0.216-1.644,0.404
		c-0.42,0.15-0.724,0.176-0.904-0.297c-0.252-0.446-0.505-0.892-0.757-1.339c-0.017-0.155,0.077-0.26,0.205-0.27
		c0.649-0.054,1.3-0.155,1.951-0.009C24.988,10.884,25.464,11.316,25.741,11.901z"/>
	<path fill-rule="evenodd" clip-rule="evenodd" fill="#383838" d="M18.245,4.7c0.037-0.253,0.234-0.201,0.398-0.205
		c0.341-0.008,0.686,0.035,1.014-0.093c0.71,0.758,1.378,1.549,2.004,2.377c-0.519,0.219-1.063,0.25-1.615,0.207
		C19.446,6.225,18.846,5.462,18.245,4.7z"/>
	<path fill-rule="evenodd" clip-rule="evenodd" fill="#191919" d="M24.592,10.389c-0.583,0.127-1.174,0.09-1.763,0.092
		c-0.165,0.001-0.313,0.019-0.393,0.188c-0.396-0.628-0.793-1.257-1.19-1.884c0.629-0.427,1.289-0.304,1.952-0.109
		C23.663,9.247,24.128,9.818,24.592,10.389z"/>
	<path fill-rule="evenodd" clip-rule="evenodd" fill="#282828" d="M23.198,8.675c-0.65,0.038-1.31-0.087-1.952,0.109
		c-0.399-0.6-0.799-1.199-1.199-1.798c0.524-0.182,1.067-0.213,1.615-0.207C22.197,7.393,22.727,8.011,23.198,8.675z"/>
	<path fill-rule="evenodd" clip-rule="evenodd" fill="#282828" d="M48.209,14.385c-0.625-0.154-1.27-0.13-1.905-0.191
		c0.437-0.599,0.903-1.173,1.403-1.72c0.442-0.233,0.913-0.155,1.376-0.115c0.171,0.015,0.352,0.083,0.26,0.333
		C48.909,13.219,48.668,13.876,48.209,14.385z"/>
	<path fill-rule="evenodd" clip-rule="evenodd" fill="#444444" d="M50.563,9.055c0.45-0.103,0.906-0.103,1.364-0.094
		c0.176,0.003,0.354-0.011,0.446,0.188c-0.556,0.576-1.112,1.153-1.667,1.729c-0.533,0.026-1.073,0.164-1.583-0.118
		C49.566,10.16,50.061,9.604,50.563,9.055z"/>
	<path fill-rule="evenodd" clip-rule="evenodd" fill="#373737" d="M49.124,10.76c0.526,0.063,1.068-0.105,1.582,0.118
		c-0.454,0.605-0.907,1.21-1.362,1.814c-0.029-0.219-0.19-0.214-0.354-0.213c-0.427,0-0.854-0.002-1.282-0.004
		C48.144,11.873,48.613,11.3,49.124,10.76z"/>
	<path fill-rule="evenodd" clip-rule="evenodd" fill="#989898" d="M53.716,38.441c-0.375-0.36-0.778-0.658-1.342-0.586
		c0.444-0.429,0.685-0.969,0.88-1.544c0.162-0.475,0.523-0.819,0.852-1.182c0.077-0.084,0.167-0.164,0.27-0.024
		C54.294,36.245,54.063,37.354,53.716,38.441z"/>
	<path fill-rule="evenodd" clip-rule="evenodd" fill="#DADADA" d="M47.999,18.471c-0.025,0.199-0.067,0.301-0.291,0.136
		c-0.862-0.637-1.535-0.439-1.984,0.569c-0.032,0.072-0.043,0.168-0.132,0.175c-0.116,0.009-0.143-0.103-0.182-0.185
		c-0.206-0.426,0.146-1.154,0.677-1.402c0.276-0.129,0.568-0.177,0.872-0.155C47.306,17.896,47.653,18.183,47.999,18.471z"/>
	<path fill-rule="evenodd" clip-rule="evenodd" fill="#909090" d="M31.252,53.646c0.934,0,1.868,0,2.802,0
		C33.12,53.782,32.186,53.764,31.252,53.646z"/>
	<path fill-rule="evenodd" clip-rule="evenodd" fill="#F3F3F3" d="M12.264,22.933c-0.047,0.349-0.171,0.667-0.38,0.951
		C11.925,23.533,12.026,23.206,12.264,22.933z"/>
	<path fill-rule="evenodd" clip-rule="evenodd" fill="#F3F3F3" d="M11.883,23.884c-0.028,0.279-0.081,0.548-0.285,0.76
		C11.627,24.366,11.681,24.096,11.883,23.884z"/>
	<path fill-rule="evenodd" clip-rule="evenodd" fill="#FDFDFD" d="M47.146,23.79c0.067,0.182,0.25,0.247,0.389,0.328
		c0.803,0.471,1.325,1.188,1.79,1.961c0.259,0.152,0.309,0.427,0.383,0.679c0.214,0.727,0.322,1.475,0.423,2.225
		c0.135,1.002,0.135,2.007,0.083,3.014c-0.04,0.242-0.089,0.483-0.086,0.731c-0.153,1.593-0.34,3.181-0.854,4.708
		c-0.076,0.233-0.16,0.462-0.239,0.694c-0.285,0.604-0.473,1.25-0.833,1.817c-0.049,0.075-0.096,0.15-0.138,0.229
		c-0.44,0.856-1.102,1.528-1.801,2.17c-0.068,0.05-0.143,0.092-0.211,0.143c-0.083,0.066-0.161,0.141-0.249,0.202
		c-0.352,0.24-0.721,0.454-1.076,0.692c-1.018,0.571-2.143,0.808-3.27,1.032c-0.37,0.074-0.742,0.139-1.112,0.214
		c-1.103,0.189-2.215,0.28-3.329,0.373c-1.529,0.045-3.058,0.098-4.586-0.031c-0.456-0.039-0.914-0.016-1.371-0.042
		c-0.117,0.009-0.231-0.008-0.346-0.032c-0.785-0.111-1.582-0.115-2.365-0.25c-0.301,0.007-0.589-0.068-0.879-0.134
		c-0.655-0.07-1.307-0.17-1.957-0.271c-0.364-0.124-0.756-0.17-1.079-0.402c-0.872-0.309-1.755-0.585-2.602-0.96
		c-1.402-0.621-2.543-1.555-3.391-2.837c-0.488-0.402-0.587-1.01-0.811-1.552c-0.089-0.214-0.13-0.448-0.167-0.681
		c-0.034-0.273-0.134-0.535-0.16-0.813c-0.004-0.765-0.057-1.526-0.19-2.28c-0.133-0.139-0.168-0.295-0.096-0.474
		c-0.089-0.45-0.19-0.898,0.076-1.328c0.015-0.023,0.021-0.065,0.01-0.092c-0.329-0.787-0.064-1.571,0.008-2.355
		c0.051-0.562,0.085-1.126,0.167-1.683c0.037-0.25-0.066-0.462-0.082-0.695c-0.048-0.679,0.214-1.293,0.344-1.934
		c0.025-0.122,0.031-0.249,0.045-0.373c-0.129-0.244-0.026-0.456,0.095-0.666c0.19-0.729,0.381-1.457,0.57-2.186
		c0.026-0.726,0.421-1.275,0.856-1.806c0.228-0.153,0.417-0.342,0.57-0.57c0.275-0.482,0.709-0.735,1.235-0.856
		c0.253-0.095,0.507-0.189,0.76-0.285c0.407-0.267,0.887-0.191,1.331-0.284c0.095,0,0.19,0,0.285,0
		c0.229-0.161,0.491-0.144,0.75-0.142c0.479,0.059,0.948-0.154,1.429-0.055c0.85-0.07,1.696,0.063,2.545,0.054
		c0.318-0.003,0.631,0.021,0.935,0.123c0.156,0.046,0.315,0.074,0.477,0.092c0.433,0.095,0.871,0.077,1.308,0.073
		c0.3-0.003,0.593,0.026,0.877,0.125c0.281,0.118,0.568,0.189,0.876,0.11c0.076-0.02,0.165-0.042,0.234-0.015
		c0.533,0.211,1.12,0.129,1.658,0.305c0.15,0.076,0.299,0.155,0.472,0.169c0.844,0.002,1.654,0.214,2.47,0.396
		c0.094,0.042,0.179,0.096,0.228,0.191c0.101,0.138,0.25,0.081,0.381,0.094c0.865-0.097,1.635,0.3,2.449,0.472
		c0.047,0.021,0.086,0.055,0.117,0.099c0.179,0.195,0.432,0.217,0.666,0.284c0.409-0.074,0.766,0.124,1.136,0.232
		c0.917,0.268,1.789,0.658,2.662,1.042c0.618,0.174,1.254,0.311,1.714,0.817C46.83,23.662,46.987,23.726,47.146,23.79z"/>
	<path fill-rule="evenodd" clip-rule="evenodd" fill="#F7F7F7" d="M24.05,19.131c-0.253,0-0.507,0.001-0.761,0.001
		c0.188-0.403-0.163-0.61-0.347-0.848c-0.156-0.202-0.413-0.33-0.638-0.47c-0.093-0.059-0.278,0.012-0.273-0.175
		c0.001-0.05,0.104-0.104,0.168-0.144c0.134-0.083,0.29-0.111,0.372,0.046c0.103,0.198,0.299,0.274,0.446,0.412
		c0.168,0.157,0.387,0.205,0.607,0.225c0.124,0.01,0.267,0.028,0.348-0.094c0.117-0.173-0.09-0.198-0.151-0.289
		c-0.151-0.225-0.225-0.458-0.072-0.708c0.15-0.246,0.402-0.144,0.605-0.129c0.275,0.02,0.365,0.261,0.347,0.483
		c-0.036,0.439,0.193,0.298,0.343,0.154c0.26-0.25,0.318-0.087,0.399,0.136c0.133,0.365,0.339,0.675,0.714,0.836
		c0.098,0.042,0.198,0.129,0.303,0.034c0.087-0.079,0.013-0.172,0.003-0.263c-0.021-0.197-0.172-0.383-0.057-0.591
		c0.108-0.196,0.232-0.42,0.477-0.408c0.284,0.015,0.543,0.132,0.706,0.406c0.069,0.117,0.03,0.376,0.271,0.309
		c0.205-0.057,0.234-0.27,0.276-0.458c0.076-0.336-0.159-0.561-0.276-0.829c-0.035-0.079-0.125-0.166-0.03-0.254
		c0.066-0.063,0.147-0.022,0.221,0.006c0.6,0.225,1.174,0.151,1.724-0.157c0.186-0.104,0.296-0.044,0.368,0.137
		c-0.007,0.217-0.072,0.412-0.208,0.583c-0.128,0.075-0.266,0.071-0.406,0.046c-0.298-0.117-0.505,0.015-0.674,0.248
		c-0.231,0.316-0.341,0.658-0.227,1.048c0.028,0.309,0.394,0.466,0.364,0.801c-1.071-0.082-2.14-0.248-3.218-0.101
		c-0.109,0.015-0.222,0.016-0.301-0.087c-0.47-0.431-0.594-0.445-1.1-0.104C24.27,19.007,24.149,19.051,24.05,19.131z"/>
	<path fill-rule="evenodd" clip-rule="evenodd" fill="#F7F7F7" d="M34.41,19.892c-0.502-0.159-1.057,0.019-1.549-0.265
		c-0.209-0.121-0.456,0.073-0.689,0.068c-0.187-0.003-0.37-0.052-0.519-0.182c0.001-0.025,0.002-0.05,0.003-0.075
		c0.208-1.072,0.5-1.321,1.484-1.265c0.49,0.219,0.94,0.21,1.325-0.219c0.052-0.059,0.13-0.084,0.214-0.064
		c0.178,0.023,0.342-0.03,0.512-0.072c0.114-0.028,0.272-0.07,0.328,0.09c0.053,0.153-0.057,0.234-0.193,0.267
		c-0.116,0.028-0.202,0.086-0.249,0.197c0.032,0.09-0.018,0.154-0.078,0.205c-0.359,0.302-0.596,0.652-0.506,1.152
		C34.504,19.792,34.46,19.849,34.41,19.892z"/>
	<path fill-rule="evenodd" clip-rule="evenodd" fill="#F7F7F7" d="M37.356,20.463c-0.472-0.105-0.969-0.072-1.422-0.282
		c-0.366-0.171-0.778,0.104-1.146-0.1c-0.231-0.401-0.014-0.701,0.254-0.95c0.365-0.336,0.802-0.404,1.267-0.201
		c0.153,0.067,0.326,0.287,0.416-0.062c0.144-0.212,0.352-0.305,0.599-0.319c0.126,0.048,0.243,0.137,0.394,0.068
		c0.112-0.05,0.259-0.113,0.337,0.004c0.088,0.135-0.088,0.202-0.15,0.298c-0.025,0.038-0.049,0.077-0.073,0.117
		c0.021,0.043,0.036,0.101,0.005,0.131C37.48,19.528,37.381,19.981,37.356,20.463z"/>
	<path fill-rule="evenodd" clip-rule="evenodd" fill="#E94849" d="M29.939,17.04c-0.022-0.214,0.034-0.398,0.205-0.539
		c0.521-0.501,1.011-0.538,1.477-0.111c0.347,0.318,0.342,0.901,0.027,1.318c-0.13,0.172-0.334,0.157-0.473,0.281
		c-0.018,0.018-0.035,0.035-0.053,0.053c-0.453,0.157-0.772-0.058-1.055-0.377C29.986,17.465,29.857,17.274,29.939,17.04z"/>
	<path fill-rule="evenodd" clip-rule="evenodd" fill="#343434" d="M34.679,17.891c-0.564,0.619-0.867,0.695-1.493,0.381
		c-0.325-0.106-0.408-0.354-0.39-0.663c-0.058-0.387,0.195-0.645,0.384-0.93c0.268-0.15,0.526-0.357,0.851-0.129
		C34.617,16.818,34.787,17.288,34.679,17.891z"/>
	<path fill-rule="evenodd" clip-rule="evenodd" fill="#343434" d="M37.324,18.55c-0.128,0.188-0.354,0.21-0.536,0.308
		c-0.601,0.218-1.059-0.063-1.131-0.695c-0.087-0.447,0.037-0.823,0.435-1.053c0.412-0.239,0.813-0.196,1.171,0.147
		C37.577,17.558,37.606,18.051,37.324,18.55z"/>
	<path fill-rule="evenodd" clip-rule="evenodd" fill="#343434" d="M38.515,18.724c-0.143-0.699,0.022-1.029,0.647-1.293
		c0.712-0.148,0.883-0.061,1.131,0.583c0.149,0.701-0.022,0.999-0.752,1.304C39.04,19.487,38.641,19.255,38.515,18.724z"/>
	<path fill-rule="evenodd" clip-rule="evenodd" fill="#F7F7F7" d="M31.652,19.514c-0.554-0.142-1.12-0.098-1.681-0.092
		c-0.21,0.002-0.4-0.062-0.598-0.1c-0.155-0.382-0.356-0.767,0-1.147c0.324-0.347,0.78-0.382,1.138-0.025
		c0.264,0.263,0.42,0.36,0.559-0.072c0.012-0.038,0.072-0.059,0.108-0.089l-0.002,0.001c0.208-0.016,0.312,0.073,0.289,0.288
		c0.049,0.414,0.107,0.826,0.19,1.234L31.652,19.514z"/>
	<path fill-rule="evenodd" clip-rule="evenodd" fill="#EDEDED" d="M17.303,36.999c0.299,0.178,0.152,0.522,0.283,0.762
		c-0.113,0.146-0.284,0.186-0.444,0.25c-0.457,0.185-0.599,0.507-0.456,0.987c0.051,0.172,0.202,0.365-0.013,0.512
		c-0.189,0.126-0.396,0.053-0.583-0.048c-0.497-0.272-0.667-0.725-0.5-1.32l0,0c0.147-0.056,0.185-0.2,0.255-0.317
		C16.174,37.271,16.648,36.975,17.303,36.999z"/>
	<path fill-rule="evenodd" clip-rule="evenodd" fill="#EDEDED" d="M17.017,34.245c0.092,0.146,0.104,0.307,0.096,0.474
		c-0.033,0.236-0.217,0.184-0.367,0.191c-0.81,0.033-1.133,0.405-1.052,1.209c0.01,0.096,0.134,0.213-0.026,0.285
		c-0.131,0.061-0.238-0.01-0.342-0.096c-0.468-0.387-0.487-1.084-0.059-1.602C15.746,34.129,16.306,33.914,17.017,34.245z"/>
	<path fill-rule="evenodd" clip-rule="evenodd" fill="#F7F7F7" d="M40.403,21.221c-0.826-0.189-1.65-0.379-2.476-0.568
		c0.074-0.138,0.159-0.266,0.224-0.411c0.1-0.221,0.281-0.374,0.562-0.352c0.271,0.021,0.492,0.119,0.619,0.367
		c0.076,0.145,0.054,0.388,0.288,0.37c0.226-0.017,0.238-0.267,0.333-0.422c0.097-0.159,0.054-0.339,0.07-0.51
		c0.008-0.084,0.043-0.164,0.138-0.158c0.13,0.008,0.14,0.106,0.114,0.207c-0.083,0.337-0.142,0.673,0.027,1.003
		C40.44,20.883,40.511,21.032,40.403,21.221z"/>
	<path fill-rule="evenodd" clip-rule="evenodd" fill="#F7F7F7" d="M44.962,22.838c-1.25-0.496-2.515-0.944-3.803-1.331
		c0.07-0.126,0.098-0.261,0.098-0.407c0-0.296,0.115-0.49,0.454-0.445c0.315,0.042,0.577,0.171,0.475,0.542
		c-0.101,0.363,0.132,0.36,0.317,0.296c0.357-0.124,0.519,0.025,0.73,0.295c0.238,0.306,0.602,0.485,0.997,0.584
		c0.266,0.067,0.568,0.091,0.731,0.372c0.033,0.021,0.043,0.042,0.033,0.063C44.983,22.828,44.973,22.838,44.962,22.838z"/>
	<path fill-rule="evenodd" clip-rule="evenodd" fill="#DFDFDF" d="M40.403,21.221c-0.034-0.158-0.067-0.315-0.101-0.473
		c0.005-0.699,0.221-1.033,0.8-1.236c0.604-0.211,1.163-0.068,1.541,0.389c0.083,0.102,0.177,0.203,0.091,0.334
		c-0.12,0.18-0.217,0.003-0.312-0.046c-0.855-0.441-1.525-0.145-1.74,0.782c-0.028,0.119-0.082,0.2-0.189,0.252
		C40.463,21.222,40.433,21.221,40.403,21.221z"/>
	<path fill-rule="evenodd" clip-rule="evenodd" fill="#D9D9D9" d="M46.197,21.413c0.346-0.822,0.771-1.098,1.617-1.046
		c0.556,0.034,0.81,0.277,0.917,0.892c-0.186,0.075-0.281-0.102-0.404-0.164c-0.695-0.353-1.429-0.117-1.729,0.588
		c-0.066,0.156-0.11,0.295-0.307,0.3C46.26,21.793,46.164,21.614,46.197,21.413z"/>
	<path fill-rule="evenodd" clip-rule="evenodd" fill="#E2E2E2" d="M35.657,18.162c0.238,0.567,0.477,0.713,1.131,0.695
		c-0.056,0.147,0.158,0.316-0.003,0.432c-0.12,0.086-0.23-0.057-0.325-0.13c-0.345-0.264-0.716-0.305-1.1-0.117
		c-0.426,0.208-0.608,0.567-0.572,1.039c-0.162,0.008-0.306-0.018-0.378-0.189c-0.202-0.692,0.136-1.148,0.667-1.519
		C35.29,18.358,35.538,18.437,35.657,18.162z"/>
	<path fill-rule="evenodd" clip-rule="evenodd" fill="#DEDEDE" d="M42.396,17.802c0.415-0.472,0.928-0.672,1.556-0.572
		c0.343,0.054,0.624,0.205,0.805,0.5c0.047,0.077,0.12,0.207-0.001,0.299c-0.098,0.074-0.168-0.014-0.25-0.058
		c-0.84-0.448-1.417-0.271-1.829,0.57c-0.064,0.13-0.141,0.203-0.281,0.209C42.242,18.435,42.337,18.119,42.396,17.802z"/>
	<path fill-rule="evenodd" clip-rule="evenodd" fill="#E1E1E1" d="M40.293,18.013c-0.235-0.47-0.607-0.673-1.131-0.583
		c0.456-0.182,0.706-0.682,1.257-0.744c0.513-0.058,1.14,0.163,1.387,0.609c0.057,0.103,0.159,0.221,0.021,0.339
		c-0.119,0.101-0.209,0.014-0.282-0.068c-0.114-0.128-0.272-0.161-0.42-0.202C40.514,17.195,40.241,17.411,40.293,18.013z"/>
	<path fill-rule="evenodd" clip-rule="evenodd" fill="#E4E4E4" d="M34.032,16.549c-0.297-0.047-0.569,0.072-0.851,0.129
		c0.085-0.147,0.17-0.294,0.255-0.441c0.235-0.405,0.573-0.678,1.047-0.712c0.531-0.039,0.935,0.223,1.261,0.621
		c0.054,0.065,0.091,0.136,0.038,0.211c-0.056,0.079-0.132,0.061-0.21,0.027c-0.202-0.087-0.399-0.198-0.611-0.248
		C34.561,16.044,34.219,16.135,34.032,16.549z"/>
	<path fill-rule="evenodd" clip-rule="evenodd" fill="#DCDCDC" d="M45.151,19.987c0.047,0.04,0.099,0.076,0.141,0.12
		c0.133,0.138,0.422,0.246,0.28,0.469c-0.131,0.207-0.295-0.057-0.439-0.112c-0.569-0.216-1.238,0.054-1.537,0.648
		c-0.077,0.153-0.102,0.344-0.344,0.298C43.246,20.194,43.807,19.773,45.151,19.987z"/>
	<path fill-rule="evenodd" clip-rule="evenodd" fill="#DFDFDF" d="M38.515,18.724c0.208,0.429,0.555,0.62,1.026,0.594
		c0.037,0.099,0.133,0.196,0.064,0.306c-0.054,0.086-0.129,0.022-0.2-0.011c-0.936-0.424-1.495-0.157-1.776,0.837
		c-0.011,0.042-0.054,0.074-0.082,0.11c-0.077-0.005-0.149-0.02-0.19-0.096c-0.265-0.617,0.105-1.021,0.476-1.425
		C38.073,18.961,38.344,18.952,38.515,18.724z"/>
	<path fill-rule="evenodd" clip-rule="evenodd" fill="#E3E3E3" d="M31.655,19.512c-0.283-0.378-0.368-0.786-0.19-1.234
		c0.347-0.416,0.833-0.556,1.332-0.669c0.128,0.222,0.149,0.507,0.39,0.663c-0.346,0.004-0.704-0.027-1.001,0.198
		c-0.208,0.157-0.348,0.368-0.34,0.646C31.849,19.281,31.833,19.434,31.655,19.512z"/>
	<path fill-rule="evenodd" clip-rule="evenodd" fill="#EBEBEB" d="M44.962,22.838c-0.001-0.032-0.001-0.063-0.001-0.094
		c0.452-0.063,0.895-0.095,1.308,0.175c0.253,0.166,0.451,0.345,0.402,0.68C46.121,23.3,45.542,23.066,44.962,22.838z"/>
	<path fill-rule="evenodd" clip-rule="evenodd" fill="#F7F7F7" d="M20.914,19.702c-0.417,0.278-0.869,0.506-1.235,0.856
		c-0.142-0.287-0.045-0.49,0.217-0.646c0.132-0.079,0.268-0.167,0.369-0.279C20.524,19.343,20.73,19.371,20.914,19.702z"/>
	<path fill-rule="evenodd" clip-rule="evenodd" fill="#F7F7F7" d="M17.682,25.12c0.03,0.23-0.04,0.447-0.095,0.666
		c-0.241-0.212-0.403-0.512-0.74-0.622c-0.111-0.035-0.217-0.152-0.124-0.3c0.057-0.09,0.121-0.208,0.208-0.239
		c0.15-0.057,0.208,0.1,0.268,0.202C17.31,25.013,17.38,25.253,17.682,25.12z"/>
	<path fill-rule="evenodd" clip-rule="evenodd" fill="#F7F7F7" d="M19.108,21.128c-0.325,0.583-0.639,1.172-0.856,1.806
		c-0.354-0.183-0.396-0.373-0.071-0.656c0.261-0.227,0.404-0.557,0.548-0.871C18.805,21.242,18.889,21.095,19.108,21.128z"/>
	<path fill-rule="evenodd" clip-rule="evenodd" fill="#F7F7F7" d="M23.005,19.132c-0.444,0.095-0.887,0.189-1.331,0.284
		C22.044,18.979,22.55,19.174,23.005,19.132z"/>
	<path fill-rule="evenodd" clip-rule="evenodd" fill="#F7F7F7" d="M34.979,17.073c0.109,0.011,0.166,0.08,0.177,0.182
		c0.013,0.104-0.03,0.203-0.139,0.202c-0.108,0-0.22-0.055-0.211-0.197C34.812,17.158,34.869,17.087,34.979,17.073z"/>
	<path fill-rule="evenodd" clip-rule="evenodd" fill="#F3F3F3" d="M15.591,38.142c0.002,0.715,0.284,1.208,0.756,1.313
		c0.104,0.024,0.228,0.055,0.314-0.033c0.086-0.085-0.004-0.174-0.037-0.256c-0.295-0.741-0.097-1.124,0.691-1.327
		c0.091-0.022,0.18-0.051,0.27-0.078c0.107,0.828,0.492,1.552,0.856,2.283c-0.317,0-0.633,0-0.95-0.002
		c-0.564,0.052-1.084-0.072-1.578-0.357C15.154,39.243,15.071,38.891,15.591,38.142z"/>
	<path fill-rule="evenodd" clip-rule="evenodd" fill="#F3F3F3" d="M12.295,29.465c-0.189-0.017-0.217-0.15-0.22-0.303
		c-0.003-0.194,0.079-0.372,0.267-0.387c0.198-0.015,0.293,0.158,0.295,0.351C12.638,29.349,12.455,29.397,12.295,29.465z"/>
	<path fill-rule="evenodd" clip-rule="evenodd" fill="#DDDDDD" d="M27.475,44.411c0.284,0.035,0.568,0.068,0.853,0.103
		c0.118,0.077,0.258,0.124,0.335,0.255c0.107,0.181,0.219,0.384,0.057,0.565c-0.158,0.178-0.316,0.003-0.46-0.076
		c-0.507-0.283-0.859-0.259-1.143,0.085c-0.236,0.288-0.22,0.645,0.107,0.811c0.475,0.239,0.974,0.446,1.513,0.507
		c0.281,0.033,0.385-0.084,0.363-0.389c-0.081-1.113,0.497-1.634,1.61-1.482c0.093,0.003,0.186,0.006,0.279,0.01
		c0.637,0.243,0.91,0.612,0.862,1.288c-0.021,0.298,0.078,0.414,0.338,0.46c0.114,0.272,0.253,0.531,0.409,0.783
		c0.094,0.15,0.149,0.328,0.03,0.481c-0.142,0.184-0.327,0.13-0.5,0.027c-0.754-0.235-1.436-0.261-1.94,0.515
		c-0.181,0.279-0.361,0.15-0.436-0.141c-0.124-0.479-0.436-0.838-0.905-0.922c-0.535-0.098-1.11-0.116-1.474,0.446
		c-0.358,0.219-0.613-0.001-0.808-0.242c-0.232-0.285-0.505-0.505-0.807-0.702c-0.246-0.079-0.498-0.119-0.756-0.095
		c-0.334,0.048-0.659,0.01-0.975-0.108c-0.88-0.335-1.807-0.544-2.624-1.053c-0.487-0.304-0.727-0.695-0.569-1.154
		c0.147-0.429,0.703-0.718,1.207-0.637c0.206,0.033,0.378,0.16,0.583,0.193c0.181,0.237,0.234,0.469-0.016,0.702
		c-0.469-0.623-0.802-0.76-1.186-0.462c-0.195,0.152-0.31,0.373-0.151,0.625c0.227,0.358,0.8,0.387,1.305,0.066
		c0.124,0.17-0.057,0.468,0.225,0.565c0.171,0.059,0.312,0.006,0.394-0.167c0.27,0.022,0.227,0.295,0.351,0.435
		c0.078,0.136,0.153,0.272,0.36,0.321c-0.02-0.244-0.248-0.348-0.315-0.538c-0.082-0.84,0.589-1.485,1.414-1.36
		c0.154,0.022,0.302,0.08,0.46,0.071c0.237,0.009,0.327,0.173,0.36,0.368c0.042,0.253-0.134,0.386-0.374,0.286
		c-0.159-0.066-0.294-0.186-0.459-0.241c-0.358-0.12-0.75,0.05-0.862,0.374c-0.116,0.332,0.039,0.626,0.444,0.748
		c0.321,0.096,0.606,0.263,0.911,0.388c0.473,0.191,0.598,0.097,0.561-0.391C25.975,44.839,26.581,44.28,27.475,44.411z"/>
	<path fill-rule="evenodd" clip-rule="evenodd" fill="#D1D1D1" d="M32.128,47.839c0.148-0.027,0.34,0.069,0.439-0.092
		c0.115-0.188-0.055-0.324-0.146-0.465c-0.154-0.238-0.336-0.464-0.293-0.777c-0.165-0.456,0.214-1.038,0.792-1.218
		c0.785-0.242,1.52,0.11,1.849,0.886c-0.018,0.338-0.19,0.371-0.434,0.2c-0.154-0.108-0.285-0.252-0.464-0.322
		c-0.413-0.164-0.953,0.09-1.079,0.507c-0.103,0.341,0.16,0.72,0.606,0.816c0.449,0.096,0.905-0.055,1.361-0.023
		c0.145,0.01,0.261-0.134,0.271-0.287c0.034-0.486,0.327-0.806,0.668-1.102c0.122-0.094,0.262-0.136,0.413-0.146
		c0.454-0.037,0.889,0.01,1.22,0.363c0.347,0.371,0.727,0.326,1.112,0.103c0.369-0.217,0.772-0.354,1.148-0.551
		c0.138-0.072,0.28-0.151,0.448-0.105c0.487,0.516,0.481,0.827-0.02,1.132c-0.192,0.039-0.375-0.021-0.561-0.053
		c-0.664-0.108-1.153,0.167-1.253,0.827c-0.084,0.554-0.385,0.79-0.872,0.906c-0.353,0.083-0.699,0.186-1.036,0.327
		c-0.396,0.165-0.777,0.179-1.156-0.115c-0.297-0.229-0.675-0.245-1.045-0.168c-0.352-0.024-0.469,0.437-0.825,0.403
		c-0.239,0.146-0.45,0.092-0.538-0.158C32.61,48.368,32.333,48.131,32.128,47.839z"/>
	<path fill-rule="evenodd" clip-rule="evenodd" fill="#DBDBDB" d="M22.625,43.939c-0.173,0.196-0.316,0.01-0.465-0.041
		c-0.647-0.223-1.332,0.273-1.242,0.907c0.025,0.178,0.083,0.396,0.235,0.444c0.526,0.165,0.892,0.62,1.469,0.72
		c0.519,0.089,1.008,0.352,1.516,0.518c0.282,0.092,0.577,0.142,0.866,0.211c-0.042,0.075-0.112,0.093-0.191,0.095
		c-0.503,0.253-0.956,0.059-1.405-0.16c-0.184-0.078-0.373-0.146-0.498-0.315c-0.348-0.094-0.695-0.099-1.043,0
		c-0.457,0.042-0.873-0.082-1.27-0.3c-0.347-0.191-0.708-0.322-1.107-0.393c-0.541-0.097-0.984-0.447-1.372-0.8
		c-0.562-0.512-0.235-1.308,0.588-1.598c0.13-0.047,0.512,0.056,0.308-0.332c0.631,0.158,0.869,0.625,0.95,1.215
		c0.015,0.104-0.029,0.244,0.117,0.277c0.161,0.036,0.152-0.124,0.201-0.211c0.299-0.543,0.725-0.838,1.378-0.818
		C22.116,43.373,22.391,43.601,22.625,43.939z"/>
	<path fill-rule="evenodd" clip-rule="evenodd" fill="#B1B1B1" d="M33.272,48.885c0.273-0.13,0.382-0.518,0.759-0.481
		c0.058,0.234-0.145,0.365-0.226,0.543c-0.139,0.304-0.192,0.605,0.026,0.888c0.21,0.272,0.509,0.271,0.816,0.211
		c0.232-0.047,0.447-0.134,0.647-0.264c0.316-0.206,0.617-0.185,0.89,0.089c0.115,0.348-0.01,0.636-0.339,0.714
		c-0.819,0.194-1.639,0.421-2.495,0.395c-0.468-0.219-0.942-0.364-1.464-0.184c-0.278,0.096-0.413,0.398-0.708,0.462
		c-0.436-0.097-0.861-0.39-1.299,0.072c-0.111,0.115-0.453,0.063-0.682-0.021c-0.39-0.145-0.486-0.404-0.288-0.773
		c0.077-0.143,0.251-0.286-0.012-0.418c0.35-0.243,0.72-0.181,1.068-0.026c0.418,0.186,0.816,0.242,1.279,0.147
		c0.425-0.087,0.881-0.037,1.322-0.021c0.426,0.017,0.675-0.108,0.61-0.589C33.143,49.374,33.197,49.127,33.272,48.885z"/>
	<path fill-rule="evenodd" clip-rule="evenodd" fill="#CFCFCF" d="M25.759,46.793c0.357-0.01,0.583,0.195,0.761,0.471
		c0.2,0.312,0.46,0.512,0.854,0.474c-0.183,0.267-0.3,0.552-0.284,0.883c0.015,0.305-0.183,0.426-0.426,0.338
		c-0.438-0.154-0.9-0.151-1.339-0.275c-0.381-0.106-0.659-0.346-0.693-0.751c-0.035-0.417,0.249-0.653,0.597-0.826
		C25.413,47.016,25.688,47.075,25.759,46.793z"/>
	<path fill-rule="evenodd" clip-rule="evenodd" fill="#CDCDCD" d="M22.909,46.317c0.159,0.063,0.317,0.126,0.476,0.189
		c0.364,0.228,0.439,0.685,0.759,0.948c-0.046,0.215-0.11,0.424-0.097,0.651c0.021,0.348-0.148,0.45-0.478,0.348
		c-0.36-0.113-0.723-0.22-1.09-0.301c-0.392-0.088-0.674-0.259-0.709-0.695c-0.037-0.461,0.288-0.664,0.621-0.855
		C22.561,46.504,22.807,46.541,22.909,46.317z"/>
	<path fill-rule="evenodd" clip-rule="evenodd" fill="#D8D8D8" d="M24.144,47.455c-0.328,0.04-0.338-0.256-0.454-0.436
		c-0.108-0.167-0.204-0.342-0.306-0.513c0.456,0.195,0.919,0.356,1.428,0.286C24.595,47.019,24.268,47.134,24.144,47.455z"/>
	<path fill-rule="evenodd" clip-rule="evenodd" fill="#D8D8D8" d="M25.476,44.225c-0.078,0.107-0.186,0.097-0.299,0.077
		c-0.981-0.167-1.504,0.27-1.506,1.254c0.102,0.079,0.217,0.175,0.071,0.295c-0.115,0.093-0.196-0.014-0.261-0.105
		c-0.182-0.105-0.133-0.351-0.285-0.476c0.015-0.825,0.488-1.371,1.239-1.429c0.374-0.001,0.704,0.158,1.041,0.289
		c0.034,0.021,0.044,0.042,0.034,0.063S25.487,44.225,25.476,44.225z"/>
	<path fill-rule="evenodd" clip-rule="evenodd" fill="#EDEDED" d="M12.264,37.761c-0.119,0.075-0.23,0.167-0.358,0.218
		c-0.211,0.085-0.412,0.007-0.54-0.156c-0.123-0.156-0.04-0.339,0.078-0.471c0.156-0.177,0.347-0.187,0.548-0.059
		c0.173,0.111,0.243,0.276,0.271,0.47V37.761z"/>
	<path fill-rule="evenodd" clip-rule="evenodd" fill="#A1A1A1" d="M45.911,46.696c0,0.095,0,0.189,0,0.284
		c-0.227,0.42-0.649,0.572-1.045,0.761c-0.238,0.134-0.527,0.2-0.666,0.474c-0.467,0.045-0.883,0.084-1.175,0.596
		c-0.167,0.292-0.6,0.495-1.033,0.453c-0.11-0.011-0.249-0.004-0.292,0.105c-0.203,0.511-0.57,0.372-0.938,0.259
		c-0.118-0.036-0.242-0.056-0.363-0.083c-0.04-0.134,0.039-0.232,0.137-0.271c0.48-0.187,0.538-0.57,0.5-1.009
		c-0.007-0.078,0-0.157,0.009-0.237c0.131-0.609,0.558-0.876,1.13-0.976c0.03-0.003,0.065-0.014,0.092-0.003
		c0.677,0.283,1.276,0.124,1.859-0.276c0.191-0.133,0.416-0.224,0.576-0.397c0.269-0.292,0.266-0.566,0.015-0.934
		c-0.118-0.172-0.329-0.328-0.116-0.568c0.157-0.043,0.267,0.053,0.381,0.131c0.119,0.104,0.228,0.217,0.336,0.332
		c0.192,0.298,0.396,0.298,0.649,0.055c0.441-0.425,0.924-0.804,1.35-1.248c0.113-0.117,0.232-0.331,0.461-0.156
		c0.233,0.909,0.129,1.165-0.573,1.415C46.465,45.523,46.051,45.973,45.911,46.696z"/>
	<path fill-rule="evenodd" clip-rule="evenodd" fill="#8F8F8F" d="M44.865,47.741c0.349-0.253,0.697-0.506,1.045-0.761
		c0.31,0.469,0.282,0.593-0.19,0.856C45.434,47.813,45.159,47.698,44.865,47.741z"/>
	<path fill-rule="evenodd" clip-rule="evenodd" fill="#A8A8A8" d="M41.158,48.025c0,0.093-0.011,0.188,0.003,0.28
		c0.075,0.516-0.035,0.921-0.606,1.075c-0.062,0.019-0.104,0.108-0.156,0.164c-0.516-0.025-0.853,0.26-1.132,0.647
		c-0.153,0.212-0.27,0.487-0.626,0.34c-0.102-0.042-0.175,0.05-0.249,0.105c-0.354,0.271-0.753,0.378-1.196,0.336
		c-0.063-0.006-0.154-0.027-0.185,0.005c-0.521,0.543-1.136,0.173-1.712,0.19c-0.169,0.005-0.338,0.059-0.507,0.091
		c-0.727,0.313-1.133,0.267-1.461-0.17c-0.047-0.063-0.084-0.13-0.06-0.213c0.853,0.011,1.661-0.266,2.494-0.385
		c0.385-0.056,0.367-0.37,0.355-0.661c-0.092-0.735,1.084-1.342,1.661-0.972c0.765,0.49,1.361,0.21,1.99-0.183
		C40.207,48.403,40.698,48.248,41.158,48.025z"/>
	<path fill-rule="evenodd" clip-rule="evenodd" fill="#A1A1A1" d="M33.271,50.877c0.377,0.646,0.978,0.399,1.521,0.383
		c-0.169,0.184-0.335,0.37-0.51,0.549c-0.053,0.055-0.149,0.139-0.19,0.121c-0.59-0.235-1.018,0.346-1.588,0.296
		c-0.417-0.034-0.764-0.105-1.036-0.437c-0.097-0.118-0.2-0.249-0.382-0.243c0.031-0.097,0.063-0.193,0.093-0.289
		C31.804,50.474,32.498,50.349,33.271,50.877z"/>
	<path fill-rule="evenodd" clip-rule="evenodd" fill="#DBDBDB" d="M50,28.923c-0.161-0.963-0.277-1.937-0.675-2.844
		c0.293-0.244,0.487-0.001,0.688,0.152c0.121,0.092,0.25,0.178,0.379,0.084c0.143-0.101,0.072-0.253,0.009-0.382
		c-0.102-0.208-0.205-0.416-0.308-0.623c0.233,0.111,0.259-0.04,0.291-0.215c0.061-0.339,0.27-0.577,0.585-0.687
		c0.254-0.087,0.52-0.113,0.752,0.104c0.22,0.206,0.248,0.465,0.124,0.691c-0.235,0.424-0.052,0.938-0.328,1.341
		c-0.506,0.384-0.896,0.817-0.664,1.523c0.217,0.179,0.342,0.414,0.379,0.687c0.046,0.328-0.115,0.501-0.432,0.429
		C50.53,29.12,50.238,29.098,50,28.923z"/>
	<path fill-rule="evenodd" clip-rule="evenodd" fill="#B0B0B0" d="M47.715,43.938c-0.557,0.51-1.119,1.016-1.669,1.533
		c-0.419,0.395-0.523,0.388-0.8-0.104c0.454-0.331,0.75-0.817,1.204-1.161c0.553-0.418,0.474-0.965-0.102-1.405
		c-0.136-0.104-0.382-0.117-0.341-0.381c0.056-0.036,0.112-0.072,0.168-0.108c0.324-0.12,0.54,0.072,0.761,0.258
		c0.352,0.293,0.449,0.287,0.631-0.105c0.099-0.211,0.242-0.358,0.421-0.497c0.662-0.51,0.693-0.882,0.14-1.475
		c-0.093-0.102-0.236-0.184-0.128-0.357c0.033-0.062,0.065-0.123,0.099-0.187c0.289-0.189,0.504-0.021,0.719,0.149
		c0.364,0.29,0.446,0.276,0.585-0.144c0.067-0.203,0.167-0.368,0.328-0.505c0.108-0.092,0.207-0.194,0.281-0.316
		c0.156-0.258,0.341-0.521,0.123-0.825c-0.215-0.301-0.51-0.257-0.81-0.147c-0.133,0.05-0.269,0.107-0.394-0.021
		c0.039-0.23,0.099-0.455,0.226-0.655c0.419-0.365,0.675-0.393,0.938-0.104c-0.103,0.019-0.22-0.039-0.315,0.062
		c0.081,0.181,0.291,0.155,0.42,0.271c0.624,0.562,0.713,0.985,0.372,1.765c-0.171,0.391-0.469,0.714-0.573,1.136
		c-0.261,0.469-0.366,0.975-0.421,1.509c-0.034,0.333-0.281,0.597-0.558,0.8c-0.04,0.023-0.083,0.043-0.127,0.059
		c-0.436,0.053-0.743,0.289-0.953,0.667C47.88,43.756,47.835,43.876,47.715,43.938z"/>
	<path fill-rule="evenodd" clip-rule="evenodd" fill="#989898" d="M48.951,42.893c0.417-0.418,0.654-0.898,0.577-1.512
		c-0.044-0.358,0.286-0.528,0.471-0.768c0.197-0.094,0.384-0.193,0.619-0.197c0.569-0.01,0.889-0.441,0.771-1.007
		c-0.137-0.661,0.117-1.189,0.7-1.46c-0.001,0.154,0.023,0.273,0.224,0.289c0.877,0.067,1.12,0.949,0.452,1.645
		c-0.236,0.245-0.496,0.439-0.589,0.809c-0.067,0.266-0.294,0.429-0.572,0.148c-0.044-0.043-0.094-0.087-0.15-0.115
		c-0.185-0.096-0.389-0.355-0.579-0.132c-0.164,0.194,0.144,0.294,0.247,0.424c0.38,0.479,0.21,1.149-0.424,1.571
		c-0.142,0.095-0.277,0.148-0.335,0.356c-0.14,0.496-0.281,0.526-0.744,0.234C49.406,43.059,49.082,43.201,48.951,42.893z"/>
	<path fill-rule="evenodd" clip-rule="evenodd" fill="#BFBFBF" d="M50.009,32.721c-0.008-0.225-0.044-0.455,0.083-0.663
		c0.282-0.388,0.667-0.418,1.094-0.328c0.546,0.115,0.567,0.091,0.394-0.426c-0.064-0.195-0.115-0.393-0.128-0.597
		c-0.008-0.114-0.037-0.267,0.163-0.264c0.282,0.179,0.335-0.131,0.462-0.236c0.482-0.399,1.179-0.272,1.302,0.274
		c0.067,0.296-0.049,0.602-0.189,0.849c-0.218,0.382-0.259,0.794-0.341,1.203c-0.457,0.469-0.559,1.009-0.401,1.643
		c0.139,0.557-0.078,0.752-0.635,0.654c-0.284-0.051-0.521,0.08-0.77,0.174c-0.172-0.388,0.016-0.729,0.143-1.073
		c0.076-0.205,0.184-0.397,0.195-0.623c0.027-0.528-0.34-0.814-0.85-0.672C50.363,32.683,50.209,32.858,50.009,32.721z"/>
	<path fill-rule="evenodd" clip-rule="evenodd" fill="#CBCBCB" d="M50.009,32.721c0.121,0.004,0.196-0.089,0.293-0.135
		c0.325-0.154,0.659-0.243,0.965,0.038c0.29,0.265,0.334,0.614,0.196,0.951c-0.189,0.465-0.374,0.924-0.42,1.429
		c-0.064,0.063-0.127,0.124-0.191,0.188c-0.269,0.515-0.302,1.045-0.174,1.609c0.103,0.45-0.065,0.621-0.489,0.581l-0.047-0.002
		h-0.047c-0.343-0.241-0.626,0.061-0.938,0.104C49.609,35.926,49.843,34.329,50.009,32.721z"/>
	<path fill-rule="evenodd" clip-rule="evenodd" fill="#B0B0B0" d="M50.189,37.382c0.443-0.011,0.434-0.279,0.365-0.61
		c-0.118-0.563-0.249-1.138,0.298-1.58c0.029,0.214,0.154,0.187,0.312,0.141c0.361-0.104,0.708-0.038,0.953,0.246
		c0.269,0.312,0.245,0.725,0.043,1.026c-0.311,0.467-0.449,1.003-0.71,1.485c-0.069,0.129-0.135,0.274-0.284,0.299
		c-0.185,0.028-0.235-0.154-0.273-0.277C50.778,37.744,50.469,37.578,50.189,37.382z"/>
	<path fill-rule="evenodd" clip-rule="evenodd" fill="#989898" d="M47.715,43.938c0.167-0.581,0.481-1.004,1.142-1.045
		c0.036,0.133,0.053,0.258,0.167,0.372c0.617,0.615,0.442,1.334-0.404,1.599c-0.261,0.081-0.396,0.181-0.444,0.456
		c-0.041,0.229-0.212,0.339-0.459,0.236c-0.189-0.032-0.369-0.128-0.569-0.097c-0.032-0.02-0.042-0.04-0.033-0.062
		c0.011-0.021,0.021-0.031,0.032-0.031C47.929,45.125,47.771,44.511,47.715,43.938z"/>
	<path fill-rule="evenodd" clip-rule="evenodd" fill="#8F8F8F" d="M47.147,45.366c0,0.031,0,0.063,0.001,0.093
		c-0.236,0.053-0.385,0.107-0.107,0.345c0.232,0.2,0.598,0.392,0.25,0.798c-0.384,0.45-0.579,0.49-1.067,0.173
		c-0.101-0.066-0.202-0.078-0.313-0.078c-0.101-0.506,0.243-1.087,0.737-1.231C46.81,45.417,46.98,45.397,47.147,45.366z"/>
	<path fill-rule="evenodd" clip-rule="evenodd" fill="#8F8F8F" d="M47.717,45.556c0.254-0.03,0.413-0.145,0.381-0.429
		c-0.028-0.243,0.076-0.347,0.324-0.336c0.256,0.012,0.441-0.14,0.611-0.313c0.449-0.457,0.416-0.926-0.162-1.169
		c-0.449-0.188-0.139-0.275-0.014-0.416c0.032,0,0.063-0.001,0.093,0c0.204,0.139,0.503,0.056,0.667,0.286
		c-0.265,0.036-0.145,0.191-0.083,0.306c0.302,0.553,0.145,0.989-0.31,1.374c-0.295,0.252-0.643,0.419-0.848,0.809
		C48.194,46.019,47.929,45.685,47.717,45.556z"/>
	<path fill-rule="evenodd" clip-rule="evenodd" fill="#D0D0D0" d="M51.614,30.443c-0.111,0.348,0.02,0.657,0.143,0.974
		c0.056,0.145,0.212,0.316,0.041,0.477c-0.139,0.128-0.299,0.056-0.446-0.007c-0.455-0.194-0.861-0.049-1.26,0.171
		c0.005-1.046,0.029-2.093-0.092-3.135c0.249-0.006,0.497-0.021,0.724,0.119c0.108,0.066,0.243,0.114,0.347,0.017
		c0.117-0.108,0.078-0.261,0.028-0.393c-0.075-0.202-0.162-0.4-0.245-0.599c0.226-0.025,0.228-0.223,0.299-0.375
		c0.23-0.491,0.721-0.653,1.158-0.421c0.409,0.217,0.31,0.608,0.218,0.87c-0.155,0.446-0.118,0.932-0.345,1.352
		C51.866,29.733,51.63,30.021,51.614,30.443z"/>
	<path fill-rule="evenodd" clip-rule="evenodd" fill="#323232" d="M24.751,19.334c0.298-0.001,0.595-0.002,0.893-0.003
		c0.382,0.105,0.777-0.018,1.161,0.067c2.403,0.201,4.803,0.43,7.176,0.871c0.078,0.015,0.157,0.013,0.236,0.019
		c0.133,0.208-0.048,0.314-0.152,0.434c-0.153,0.176-0.331,0.333-0.455,0.535c-0.889,1.023-1.731,2.085-2.667,3.066
		c-0.138,0.146-0.262,0.322-0.481,0.364c-0.129,0.001-0.246-0.059-0.371-0.077c-0.533-0.077-0.922,0.262-0.968,0.849
		c-0.026,0.328,0.041,0.669-0.138,0.975c-1.179,1.234-2.368,2.458-3.63,3.608c-0.806,0.734-1.632,1.443-2.485,2.125
		c-1.179,0.94-2.454,1.728-3.775,2.445c-0.167,0.092-0.33,0.19-0.488,0.294c-0.241,0.146-0.459,0.32-0.667,0.513
		c-0.115,0.108-0.226,0.285-0.433,0.151c-0.207-0.46-0.022-0.955-0.126-1.423c-0.051-0.981-0.047-1.963-0.001-2.943
		c0.037-0.906,0.013-1.82,0.125-2.717c0.169-1.352,0.268-2.718,0.611-4.046c0.154-0.597,0.327-1.187,0.522-1.772
		c0.63-1.894,2.019-2.833,3.909-3.148c0.372-0.063,0.75-0.084,1.126-0.125C24.028,19.319,24.396,19.429,24.751,19.334z"/>
	<path fill-rule="evenodd" clip-rule="evenodd" fill="#6E6E6E" d="M18.542,34.821c1.038-0.656,2.148-1.19,3.147-1.913
		c1.137-0.821,2.209-1.719,3.263-2.644c1.377-1.208,2.592-2.583,3.946-3.814c0.186,0.196,0.158,0.445,0.139,0.676
		c-0.129,1.511-0.217,3.027-0.332,4.539c-0.09,1.184-0.163,2.366-0.259,3.548c-0.099,0.391-0.432,0.618-0.676,0.898
		c-0.976,1.123-1.981,2.219-2.979,3.32c-0.722,0.799-1.518,1.525-2.202,2.358c-0.232,0.282-0.551,0.474-0.819,0.719
		c-0.308-0.114-0.602-0.256-0.853-0.473c-0.259-0.376-0.621-0.659-0.91-1.011c-0.96-1.171-1.356-2.547-1.492-4.015
		c-0.043-0.469-0.022-0.943-0.09-1.414C18.387,35.336,18.364,35.06,18.542,34.821z"/>
	<path fill-rule="evenodd" clip-rule="evenodd" fill="#474747" d="M21.77,42.509c0.186-0.516,0.685-0.761,1.031-1.127
		c1.755-1.853,3.486-3.725,5.148-5.662c0.103-0.12,0.222-0.226,0.333-0.337c0.174,0.073,0.145,0.228,0.134,0.362
		c-0.104,1.349-0.163,2.7-0.307,4.044c-0.054,0.489,0.102,0.86,0.42,1.195c0.125,0.205,0.149,0.447,0.23,0.67
		c0.199,0.542,0.593,0.799,1.154,0.829c0.455,0.024,0.874-0.101,1.279-0.298c1.563-0.765,3.121-1.538,4.668-2.334
		c1.632-0.839,3.292-1.626,4.916-2.48c0.167-0.089,0.336-0.186,0.539-0.125c0.154,0.175-0.007,0.3-0.067,0.442
		c-0.197,0.294-0.405,0.582-0.61,0.871c-0.073,0.092-0.156,0.172-0.264,0.223c-0.996,0.411-1.925,0.955-2.875,1.456
		c-1.721,0.906-3.459,1.78-5.158,2.729c-0.25,0.14-0.504,0.27-0.709,0.471c-0.269,0.264-0.235,0.423,0.123,0.538
		c0.271,0.085,0.544,0.167,0.823,0.229c0.139,0.032,0.337,0.085,0.304,0.238c-0.047,0.215-0.245,0.104-0.388,0.075
		c-3.589-0.163-7.167-0.393-10.513-1.899C21.908,42.588,21.84,42.547,21.77,42.509z"/>
	<path fill-rule="evenodd" clip-rule="evenodd" fill="#3F3F3F" d="M46.574,23.899c0.812,0.355,1.485,0.882,1.991,1.615
		c0.027,0.248-0.108,0.4-0.307,0.515c-0.188,0.038-0.334-0.065-0.481-0.157c-0.972-0.609-2.044-0.914-3.179-0.977
		c-0.439-0.024-0.904,0.053-1.273,0.304c-1.224,0.833-2.506,1.586-3.592,2.608c-0.198,0.188-0.43,0.316-0.672,0.435
		c-0.417,0.206-0.47,0.372-0.302,0.793c0.168,0.42,0.453,0.75,0.755,1.078c0.235,0.256,0.566,0.473,0.532,0.895
		c-0.211,0.148-0.363-0.016-0.508-0.114c-1.516-1.054-3.075-2.044-4.58-3.114c-0.142-0.101-0.296-0.19-0.335-0.381
		c-0.022-0.212,0.125-0.348,0.229-0.503c0.968-1.424,1.936-2.846,2.594-4.451c0.067-0.163,0.143-0.323,0.354-0.338
		c2.582,0.231,5.125,0.666,7.605,1.437C45.794,23.663,46.148,23.9,46.574,23.899z"/>
	<path fill-rule="evenodd" clip-rule="evenodd" fill="#878787" d="M43.45,43.471c-1.143,0.409-2.333,0.623-3.527,0.801
		c-1.386,0.206-2.778,0.358-4.184,0.322c-0.06-0.343,0.224-0.498,0.398-0.703c0.905-1.063,1.832-2.11,2.681-3.219
		c0.067-0.088,0.149-0.161,0.241-0.225c1.675-1.192,3.533-2.083,5.246-3.212c0.658-0.435,1.114-1.028,1.354-1.771
		c0.122-0.379,0.326-0.667,0.641-0.907c0.377-0.286,0.771-0.548,1.147-0.837c0.158-0.122,0.342-0.271,0.56-0.156
		c0.239,0.126,0.21,0.364,0.184,0.588c-0.254,0.625-0.569,1.221-0.866,1.827c-0.906,1.774-1.811,3.549-2.754,5.304
		c-0.307,0.572-0.623,1.138-0.93,1.709C43.558,43.145,43.457,43.287,43.45,43.471z"/>
	<path fill-rule="evenodd" clip-rule="evenodd" fill="#585858" d="M39.079,40.521c-0.979,1.286-2.042,2.504-3.106,3.72
		c-0.092,0.105-0.156,0.233-0.234,0.353c-1.083,0.017-2.167,0.081-3.247-0.075c0.107-0.016,0.214-0.028,0.321-0.044
		c0.006-0.025,0.011-0.051,0.017-0.075c-0.381-0.103-0.764-0.198-1.143-0.307c-0.497-0.142-0.548-0.357-0.181-0.718
		c0.414-0.407,0.955-0.614,1.45-0.881c1.72-0.926,3.462-1.808,5.195-2.709c0.601-0.314,1.202-0.629,1.791-0.965
		c0.149-0.084,0.29-0.108,0.447-0.113c0.051,0.077,0.031,0.157-0.015,0.219C39.972,39.481,39.633,40.089,39.079,40.521z"/>
	<path fill-rule="evenodd" clip-rule="evenodd" fill="#636363" d="M43.45,43.471c-0.343-0.128-0.05-0.293,0.003-0.388
		c1.004-1.768,1.913-3.584,2.866-5.377c0.31-0.582,0.542-1.205,0.925-1.75c0.032-0.001,0.063-0.005,0.094-0.012
		c0.733-0.205,0.939-0.058,0.978,0.731c0.059,1.222-0.33,2.337-0.819,3.43c-0.09,0.2-0.239,0.372-0.277,0.596
		C46.276,42.052,44.999,42.945,43.45,43.471z"/>
	<path fill-rule="evenodd" clip-rule="evenodd" fill="#C6C6C6" d="M40.019,46.696c0.545-0.35,0.133-0.697-0.001-1.046
		c-0.222-0.522-0.122-0.82,0.382-1.138c0.686-0.15,1.37-0.316,2.061-0.45c0.808-0.156,1.556-0.478,2.309-0.792
		c0.184,0.217,0.208,0.495,0.245,0.753c0.057,0.39-0.198,0.604-0.529,0.743c-0.162,0.068-0.343,0.045-0.508,0.101
		c-0.659,0.127-0.863,0.669-1.087,1.192c-0.628,0.264-1.148,0.703-1.713,1.068C40.606,47.497,40.188,47.331,40.019,46.696z"/>
	<path fill-rule="evenodd" clip-rule="evenodd" fill="#575757" d="M47.219,40.701c0.008-0.462,0.268-0.843,0.423-1.252
		c0.337-0.887,0.574-1.783,0.555-2.739c-0.004-0.194-0.051-0.371-0.107-0.551c-0.082-0.254-0.2-0.395-0.468-0.17
		c-0.117,0.098-0.272,0.203-0.378-0.033c0.285-0.602,0.57-1.204,0.855-1.806c0.367-1.045,0.891-2.018,1.376-3.008
		c0.088-0.051,0.143-0.279,0.283-0.054c-0.013,0.362,0.036,0.726-0.029,1.087c-0.133,2.903-0.694,5.686-2.264,8.193
		C47.389,40.489,47.295,40.587,47.219,40.701z"/>
	<path fill-rule="evenodd" clip-rule="evenodd" fill="#303030" d="M46.574,23.899c-0.232,0.19-0.457,0.038-0.669-0.033
		c-1.85-0.622-3.739-1.055-5.672-1.335c-0.835-0.121-1.694-0.092-2.507-0.357c-0.082-0.085-0.08-0.189-0.068-0.296
		c0.126-0.281-0.07-0.701,0.368-0.847c1.676,0.331,3.323,0.773,4.92,1.376c1.151,0.434,2.329,0.809,3.427,1.378
		C46.44,23.82,46.507,23.861,46.574,23.899z"/>
	<path fill-rule="evenodd" clip-rule="evenodd" fill="#E6E6E6" d="M34.696,46.221c-0.373-0.973-1.734-1.218-2.401-0.323
		c-0.15,0.201-0.167,0.391-0.167,0.607c-0.139,0.049-0.237,0.27-0.41,0.141c-0.126-0.096-0.003-0.233,0.021-0.352
		c0.149-0.699-0.239-1.128-0.75-1.495c2.026,0.07,4.052,0.126,6.08,0.085c0.178,0.139,0.217,0.339,0.214,0.542
		c-0.004,0.301-0.106,0.505-0.475,0.47c-0.226-0.02-0.463-0.059-0.687,0.038c-0.138-0.013-0.261,0.033-0.379,0.098
		C35.418,46.231,35.124,46.596,34.696,46.221z"/>
	<path fill-rule="evenodd" clip-rule="evenodd" fill="#595959" d="M18.542,34.821c0.087,1.343,0.031,2.692,0.451,4.007
		c0.345,1.08,0.911,1.991,1.713,2.778c0.104,0.103,0.391,0.168,0.211,0.43c-1.172-0.672-2.02-1.64-2.584-2.857
		c-0.53-1.143-0.735-2.363-0.825-3.607C17.932,35.433,18.121,34.968,18.542,34.821z"/>
	<path fill-rule="evenodd" clip-rule="evenodd" fill="#DBDBDB" d="M36.12,45.934c0.139-0.151,0.322-0.088,0.487-0.091
		c0.562-0.012,0.642-0.117,0.506-0.684c-0.022-0.09-0.03-0.184-0.044-0.275c0.427-0.218,0.891-0.036,1.337-0.123
		c0.656-0.128,1.329-0.17,1.994-0.248c-0.324,0.313-0.441,0.696-0.382,1.138c-0.532,0.265-1.061,0.54-1.599,0.793
		c-0.402,0.188-0.794,0.283-1.14-0.149C36.986,45.927,36.557,45.895,36.12,45.934z"/>
	<path fill-rule="evenodd" clip-rule="evenodd" fill="#E4E4E4" d="M30.709,44.789c-0.635-0.039-1.15,0.138-1.434,0.764
		c-0.125,0.276-0.113,0.545-0.026,0.827c0.08,0.259,0.015,0.411-0.309,0.417c-0.672,0.014-1.247-0.296-1.83-0.548
		c-0.28-0.12-0.394-0.45-0.248-0.776c0.18-0.406,0.679-0.671,1.04-0.546c0.162,0.056,0.307,0.159,0.46,0.24
		c0.098,0.052,0.161,0.252,0.302,0.116c0.101-0.098,0.034-0.242-0.035-0.35c-0.093-0.145-0.2-0.281-0.301-0.42
		C29.121,44.605,29.916,44.697,30.709,44.789z"/>
	<path fill-rule="evenodd" clip-rule="evenodd" fill="#6C6C6C" d="M49.718,31.014c-0.066,0.063-0.132,0.126-0.197,0.188
		c-0.281-0.057-0.225-0.309-0.267-0.488c-0.2-0.844-0.301-1.709-0.595-2.536c-0.184-0.515-0.396-0.998-0.776-1.396
		c-0.072-0.372,0.146-0.601,0.403-0.808c0.093-0.153,0.187-0.307,0.279-0.46c0.474,0.455,0.689,1.047,0.83,1.662
		c0.187,0.815,0.346,1.639,0.329,2.485c0.094,0.351-0.017,0.713,0.063,1.064c0.002,0.097,0.004,0.191,0.007,0.286
		C49.769,31.061,49.744,31.059,49.718,31.014z"/>
	<path fill-rule="evenodd" clip-rule="evenodd" fill="#E4E4E4" d="M25.476,44.225c0-0.031,0-0.063,0-0.095
		c0.667,0.095,1.333,0.188,2,0.281c-0.992,0.011-1.428,0.536-1.258,1.512c0.057,0.329,0.005,0.509-0.417,0.407
		c-0.552-0.131-1.044-0.406-1.563-0.612c-0.352-0.139-0.371-0.54-0.205-0.862c0.185-0.355,0.52-0.493,0.915-0.406
		c0.149,0.033,0.281,0.14,0.424,0.205c0.11,0.048,0.172,0.289,0.335,0.115c0.123-0.128,0.003-0.268-0.063-0.387
		C25.608,44.318,25.533,44.276,25.476,44.225z"/>
	<path fill-rule="evenodd" clip-rule="evenodd" fill="#545454" d="M38.025,21.031c-0.269,0.229-0.089,0.606-0.286,0.859
		c-1.028-0.125-2.053-0.274-3.08-0.41c-0.377-0.049-0.802,0.072-1.112-0.264c0.088-0.407,0.588-0.517,0.67-0.928
		C35.493,20.502,36.772,20.698,38.025,21.031z"/>
	<path fill-rule="evenodd" clip-rule="evenodd" fill="#BCBCBC" d="M48.932,38.139c0.146,0.014,0.265-0.056,0.396-0.111
		c0.3-0.128,0.605-0.146,0.86,0.126c0.241,0.258,0.234,0.527,0.063,0.817c-0.119,0.202-0.226,0.408-0.426,0.551
		c-0.184,0.13-0.313,0.289-0.312,0.545c0.001,0.206-0.164,0.355-0.339,0.411c-0.164,0.051-0.271-0.104-0.37-0.233
		c-0.175-0.231-0.419-0.319-0.705-0.297C48.376,39.346,48.654,38.742,48.932,38.139z"/>
	<path fill-rule="evenodd" clip-rule="evenodd" fill="#BABABA" d="M43.914,44.792c0.077-0.104,0.192-0.082,0.3-0.095
		c0.586-0.066,0.788-0.358,0.613-0.916c-0.054-0.172-0.05-0.339-0.058-0.511c0.304-0.287,0.679-0.47,1.034-0.679
		c0.129-0.003,0.243,0.047,0.361,0.092c0.721,0.277,0.861,0.945,0.304,1.476c-0.15,0.143-0.327,0.248-0.524,0.31
		c-0.207,0.066-0.35,0.167-0.427,0.39c-0.089,0.261-0.284,0.372-0.558,0.223c-0.095-0.062-0.19-0.125-0.286-0.187
		C44.42,44.861,44.14,45.022,43.914,44.792z"/>
	<path fill-rule="evenodd" clip-rule="evenodd" fill="#BBBBBB" d="M48,40.134c-0.003,0.157,0.135,0.199,0.226,0.28
		c0.608,0.547,0.579,1.123-0.099,1.604c-0.208,0.147-0.367,0.286-0.462,0.55c-0.161,0.448-0.421,0.482-0.752,0.129
		c-0.208-0.221-0.458-0.322-0.737-0.387C46.862,41.651,47.507,40.956,48,40.134z"/>
	<path fill-rule="evenodd" clip-rule="evenodd" fill="#F3F3F3" d="M31.178,17.988c-0.012,0.029-0.028,0.057-0.036,0.087
		c-0.174,0.629-0.164,0.618-0.672,0.164c-0.241-0.215-0.528-0.352-0.857-0.129c-0.299,0.203-0.424,0.448-0.264,0.805
		c0.054,0.123,0.115,0.266,0.025,0.406c-0.132-0.014-0.281,0.044-0.38-0.095c-0.155-0.256-0.418-0.445-0.475-0.762
		c0.229-0.034,0.267-0.24,0.362-0.396c0.289-0.468,0.764-0.643,1.231-0.455C30.414,17.889,30.747,18.08,31.178,17.988z"/>
	<path fill-rule="evenodd" clip-rule="evenodd" fill="#B0B0B0" d="M44.959,45.081c0.281-0.006,0.501-0.076,0.479-0.426
		c-0.012-0.187,0.105-0.223,0.266-0.247c0.338-0.048,0.624-0.212,0.826-0.49c0.351-0.483,0.206-0.917-0.359-1.141
		c-0.126-0.05-0.285-0.047-0.369-0.186c0.067-0.059,0.135-0.115,0.203-0.173c0.056,0.158,0.215,0.158,0.334,0.226
		c0.701,0.399,0.79,1.117,0.196,1.662c-0.281,0.256-0.64,0.418-0.811,0.8c-0.073,0.166-0.284,0.238-0.48,0.26
		C45.118,45.304,45.023,45.208,44.959,45.081z"/>
	<path fill-rule="evenodd" clip-rule="evenodd" fill="#F3F3F3" d="M24.05,19.131c0.532-0.665,0.936-0.735,1.482-0.255
		c0.121,0.106,0.064,0.146-0.059,0.163C24.995,18.989,24.531,19.195,24.05,19.131z"/>
	<path fill-rule="evenodd" clip-rule="evenodd" fill="#F3F3F3" d="M17.379,31.205c0,0.98,0,1.962,0.001,2.943
		c-0.175-0.426-0.076-0.871-0.074-1.307C17.31,32.297,17.208,31.743,17.379,31.205z"/>
	<path fill-rule="evenodd" clip-rule="evenodd" fill="#7D7D7D" d="M49.718,31.014c0.025,0,0.05-0.002,0.075-0.003
		c0.016,0.39,0.044,0.781-0.065,1.165C49.725,31.787,49.721,31.4,49.718,31.014z"/>
	<path fill-rule="evenodd" clip-rule="evenodd" fill="#F3F3F3" d="M26.805,19.398c-0.388-0.003-0.779,0.032-1.161-0.068
		C26.032,19.34,26.426,19.242,26.805,19.398z"/>
	<path fill-rule="evenodd" clip-rule="evenodd" fill="#F3F3F3" d="M24.751,19.334c-0.355,0.096-0.719,0.046-1.079,0.063
		C24.024,19.242,24.391,19.337,24.751,19.334z"/>
	<path fill-rule="evenodd" clip-rule="evenodd" fill="#7D7D7D" d="M49.786,30.725c-0.155-0.346-0.053-0.709-0.063-1.064
		C49.844,30.01,49.793,30.368,49.786,30.725z"/>
	<path fill-rule="evenodd" clip-rule="evenodd" fill="#E7E5E5" d="M30.111,17.614c-0.625-0.051-1.082,0.196-1.272,0.804
		c-0.1,0.319-0.208,0.082-0.321,0.048c-0.117-0.433-0.075-0.826,0.285-1.14c0.18-0.193,0.385-0.327,0.665-0.285
		c0.157,0,0.314,0,0.472,0C30.015,17.226,30.118,17.404,30.111,17.614z"/>
	<path fill-rule="evenodd" clip-rule="evenodd" fill="#F3F3F3" d="M29.468,17.04c-0.222,0.095-0.443,0.19-0.665,0.285
		C28.958,17.076,29.111,16.82,29.468,17.04z"/>
	<path fill-rule="evenodd" clip-rule="evenodd" fill="#DBDBDB" d="M23.48,45.745c0.081,0.018,0.169,0.131,0.24,0.021
		c0.027-0.043-0.031-0.141-0.05-0.211c0.043,0.012,0.107,0.011,0.128,0.04c0.125,0.171,0.308,0.312,0.3,0.55
		c0,0.022-0.078,0.067-0.109,0.059C23.746,46.138,23.518,46.045,23.48,45.745z"/>
	<path fill-rule="evenodd" clip-rule="evenodd" fill="#BABABA" d="M40.019,46.696c0.542,0.678,0.601,0.654,1.317,0.181
		c0.484-0.319,0.888-0.81,1.532-0.848c0.313,0.091,0.252,0.364,0.245,0.573c-0.007,0.236-0.196,0.377-0.409,0.47
		c-0.161,0.071-0.345,0.006-0.5,0.097c-0.516,0.081-0.917,0.303-1.046,0.856c-0.275,0.496-0.892,0.392-1.274,0.721
		c-0.233,0.202-0.542,0.32-0.825,0.459c-0.274,0.134-0.526,0.2-0.832-0.018c-0.879-0.63-1.833-0.223-2.107,0.644
		c-0.339-0.078-0.655-0.131-0.945,0.174c-0.113,0.117-0.343,0.132-0.525,0.174c-0.355,0.083-0.701,0.063-0.938-0.256
		c-0.226-0.306-0.222-0.648-0.043-0.977c0.104-0.189,0.241-0.362,0.363-0.543c0.407-0.22,0.862-0.134,1.146,0.108
		c0.357,0.306,0.688,0.314,1.03,0.154c0.461-0.213,0.962-0.276,1.427-0.46c0.175-0.069,0.342-0.127,0.389-0.36
		c0.254-1.25,0.688-1.511,1.902-1.164C39.955,46.69,39.987,46.691,40.019,46.696z"/>
	<path fill-rule="evenodd" clip-rule="evenodd" fill="#DDDDDD" d="M34.696,46.221c0.394,0.188,0.699-0.116,1.045-0.189
		c-0.277,0.351-0.622,0.64-0.605,1.177c0.008,0.237-0.33,0.367-0.596,0.301c-0.241-0.06-0.456-0.039-0.692,0.019
		c-0.36,0.087-0.699-0.03-0.958-0.278c-0.232-0.224-0.385-0.502-0.188-0.845c0.232-0.405,0.736-0.659,1.108-0.522
		c0.219,0.081,0.438,0.178,0.58,0.389C34.517,46.458,34.632,46.471,34.696,46.221z"/>
	<path fill-rule="evenodd" clip-rule="evenodd" fill="#B0B0B0" d="M42.204,47.169c0.052-0.03,0.1-0.072,0.156-0.087
		c0.677-0.188,0.771-0.378,0.509-1.053c0.122-0.757,0.413-1.1,1.045-1.237c0.251,0.049,0.529-0.099,0.76,0.103
		c-0.164,0.136-0.058,0.242,0.033,0.358c0.511,0.659,0.357,1.245-0.418,1.586c-0.282,0.124-0.626,0.108-0.769,0.502
		c-0.057,0.157-0.317,0.153-0.505,0.025C42.772,47.199,42.493,47.154,42.204,47.169z"/>
	<path fill-rule="evenodd" clip-rule="evenodd" fill="#EE2525" d="M34.663,27.419c1.755,1.248,3.545,2.444,5.349,3.62
		c0.633,0.192,1.106,0.654,1.648,0.999c0.373,0.236,0.737,0.491,1.087,0.761c0.665,0.512,0.715,1.054,0.174,1.697
		c-0.637,0.417-1.333,0.726-2.018,1.049c-2.144,1.014-4.251,2.102-6.4,3.103c-1.691,0.787-3.332,1.678-5.034,2.441
		c-0.316,0.072-0.633,0.396-0.951,0.003c-0.565-0.313-0.587-0.817-0.54-1.387c0.122-1.438,0.206-2.882,0.304-4.322
		c0.22-2.978,0.471-5.951,0.615-8.933c0.088-0.274,0.079-0.557,0.092-0.838c0.046-1.019,0.596-1.373,1.529-0.983
		c0.195-0.033,0.326,0.097,0.464,0.193c1.092,0.766,2.208,1.498,3.316,2.239C34.443,27.158,34.587,27.254,34.663,27.419z"/>
	<path fill-rule="evenodd" clip-rule="evenodd" fill="#6A6A6A" d="M34.663,27.419c-1.407-0.893-2.783-1.83-4.144-2.791
		c1.009-1.138,2.019-2.275,3.028-3.413c1.22,0.193,2.46,0.236,3.674,0.481c0.185,0.037,0.372,0.059,0.519,0.193
		c-0.004,0.094-0.009,0.189-0.014,0.283c-0.729,1.683-1.692,3.231-2.734,4.733C34.877,27.073,34.699,27.203,34.663,27.419z"/>
	<path fill-rule="evenodd" clip-rule="evenodd" fill="#7D7D7D" d="M47.904,26.733c0.396,0.197,0.56,0.571,0.713,0.948
		c0.433,1.066,0.597,2.196,0.813,3.314c0.013,0.072,0.059,0.139,0.089,0.207c-0.435,1.002-0.86,2.009-1.422,2.948
		c-0.025-0.18,0.082-0.413-0.132-0.515c-0.18-0.088-0.317,0.084-0.454,0.184c-0.457,0.331-0.91,0.668-1.367,1.001
		c-0.267,0.193-0.297,0.502-0.396,0.782c-0.338,0.957-1.049,1.586-1.889,2.086c-1.34,0.795-2.691,1.571-4.037,2.356
		c-0.254,0.149-0.415,0.446-0.745,0.477c0.438-0.605,0.874-1.209,1.311-1.814c0.063-0.063,0.125-0.128,0.188-0.19
		c0.624-0.374,1.266-0.711,1.917-1.031c0.356-0.175,0.706-0.358,1.037-0.575c1.331-0.871,1.506-2.259,0.457-3.597
		c-0.051-0.188,0.046-0.341,0.137-0.484c1.241-1.982,2.398-4.013,3.585-6.025c0.016-0.027,0.04-0.048,0.063-0.071
		C47.818,26.706,47.861,26.706,47.904,26.733z"/>
	<path fill-rule="evenodd" clip-rule="evenodd" fill="#343434" d="M28.518,41.092c0.344,0.232,0.633-0.068,0.95-0.099
		c0.641,0.646,0.903,0.694,1.748,0.274c2.234-1.112,4.478-2.208,6.711-3.325c1.243-0.621,2.481-1.256,3.721-1.887
		c0.192-0.098,0.38-0.242,0.622-0.144c0.137,0.21-0.046,0.339-0.136,0.48c-0.099,0.155-0.218,0.297-0.304,0.462
		c-0.147,0.158-0.201,0.419-0.479,0.434c-0.346,0.03-0.606,0.255-0.9,0.4c-1.631,0.812-3.258,1.629-4.886,2.442
		c-1.467,0.734-2.936,1.465-4.401,2.202c-0.315,0.159-0.644,0.262-0.995,0.274C29.124,42.644,28.593,42.152,28.518,41.092z"/>
	<path fill-rule="evenodd" clip-rule="evenodd" fill="#737373" d="M44.01,33.294c0.53,0.265,0.619,0.811,0.74,1.288
		c0.245,0.971-0.211,1.755-0.962,2.278c-0.988,0.687-2.072,1.234-3.209,1.656c0.139-0.321,0.374-0.577,0.581-0.85
		c0.324-0.29,0.728-0.438,1.106-0.63c0.41-0.21,0.809-0.434,1.162-0.728c0.654-0.549,0.775-1.246,0.361-1.989
		c-0.077-0.137-0.184-0.258-0.216-0.419c-0.011-0.174,0.078-0.31,0.168-0.445C43.815,33.378,43.863,33.252,44.01,33.294z"/>
	<path fill-rule="evenodd" clip-rule="evenodd" fill="#5F5F5F" d="M43.629,33.864c0.459,0.623,0.75,1.271,0.315,2.035
		c-0.186,0.324-0.466,0.548-0.772,0.744c-0.636,0.408-1.306,0.753-2.013,1.023c0.064-0.126,0.127-0.252,0.191-0.379
		c0.126-0.159,0.253-0.317,0.379-0.478c0.225-0.199,0.497-0.326,0.757-0.471c0.775-0.429,1.152-1.015,0.792-1.812
		c-0.025-0.057-0.02-0.124-0.016-0.188C43.334,34.145,43.338,33.893,43.629,33.864z"/>
	<path fill-rule="evenodd" clip-rule="evenodd" fill="#484848" d="M43.629,33.864c-0.094,0.158-0.189,0.317-0.283,0.476
		c-0.072,0.076-0.046,0.234-0.2,0.244c-0.124-0.004-0.227-0.044-0.289-0.158c0.506-0.687,0.424-1.118-0.292-1.61
		c-0.854-0.587-1.702-1.184-2.553-1.776c-0.056-0.331-0.293-0.552-0.51-0.771c-0.372-0.373-0.697-0.763-0.892-1.264
		c-0.15-0.387-0.082-0.692,0.306-0.833c0.371-0.134,0.651-0.369,0.927-0.635c0.523-0.505,1.122-0.917,1.742-1.29
		c0.392-0.236,0.771-0.51,1.112-0.787c1.117-0.915,2.303-0.727,3.531-0.414c0.741,0.188,1.369,0.626,2.058,0.929
		c-0.127,0.253-0.254,0.506-0.381,0.758c-0.026,0.005-0.053,0.008-0.08,0.006c-0.098,0.104-0.19,0.21-0.331,0.26
		c-1.032,0.36-1.823,1.108-2.707,1.704c-0.848,0.572-1.647,1.213-2.47,1.823c-0.463,0.344-0.489,0.542-0.135,1.014
		c0.407,0.545,0.847,1.062,1.34,1.531c0.123,0.118,0.269,0.227,0.301,0.413C43.758,33.611,43.693,33.737,43.629,33.864z"/>
	<path fill-rule="evenodd" clip-rule="evenodd" fill="#212121" d="M42.857,34.426c0.1,0.034,0.199,0.069,0.299,0.104
		c-0.069,0.606-0.441,1.028-0.861,1.422c-0.167-0.012-0.307,0.063-0.448,0.135c-1.547,0.79-3.089,1.589-4.644,2.364
		c-2.049,1.023-4.108,2.024-6.162,3.038c-0.716,0.354-1.489,0.152-1.574-0.495c1.827-0.896,3.653-1.795,5.48-2.692
		C37.584,37.01,40.221,35.719,42.857,34.426z"/>
	<path fill-rule="evenodd" clip-rule="evenodd" fill="#4D4D4D" d="M43.822,33.484c-0.731-0.584-1.314-1.306-1.871-2.048
		c-0.257-0.342-0.128-0.64,0.209-0.939c0.634-0.563,1.346-1.028,2.015-1.54c0.869-0.665,1.785-1.293,2.734-1.854
		c0.279-0.166,0.609-0.246,0.915-0.364c-0.423,0.95-1.011,1.808-1.532,2.702c-0.751,1.29-1.521,2.569-2.282,3.853
		C43.947,33.358,43.885,33.422,43.822,33.484z"/>
	<path fill-rule="evenodd" clip-rule="evenodd" fill="#4D4D4D" d="M42.295,35.951c0.287-0.474,0.574-0.947,0.861-1.422
		c0.063-0.063,0.126-0.126,0.19-0.189c0.59,1.435-0.357,1.98-1.617,2.471C41.918,36.525,42.106,36.237,42.295,35.951z"/>
</g>
</svg>
