<?xml version="1.0" encoding="utf-8"?>
<!-- Generator: Adobe Illustrator 16.0.0, SVG Export Plug-In . SVG Version: 6.00 Build 0)  -->
<!DOCTYPE svg PUBLIC "-//W3C//DTD SVG 1.1//EN" "http://www.w3.org/Graphics/SVG/1.1/DTD/svg11.dtd">
<svg version="1.1" id="Layer_1" xmlns="http://www.w3.org/2000/svg" xmlns:xlink="http://www.w3.org/1999/xlink" x="0px" y="0px"
	 width="24px" height="50.003px" viewBox="0 0 24 50.003" enable-background="new 0 0 24 50.003" xml:space="preserve">
<path fill="#0A0A0A" d="M11.584,45.891l-5.911,3.118c-0.678,0.353-1.464-0.217-1.329-0.976l1.138-6.615
	c0.056-0.301-0.053-0.598-0.271-0.813l-4.799-4.639c-0.542-0.542-0.244-1.437,0.516-1.545l6.643-0.977
	c0.297-0.055,0.542-0.217,0.678-0.487l2.956-6.02c0.325-0.679,1.302-0.679,1.626,0l2.956,6.02c0.136,0.271,0.38,0.461,0.678,0.487
	l6.643,0.977c0.761,0.108,1.058,1.03,0.517,1.545l-4.801,4.664c-0.216,0.219-0.325,0.516-0.271,0.813l1.139,6.617
	c0.136,0.76-0.65,1.329-1.328,0.977l-5.912-3.146C12.182,45.756,11.856,45.756,11.584,45.891z"/>
<path fill="#FF2E2E" d="M11.584,20.831l-5.911,3.118c-0.678,0.353-1.464-0.217-1.329-0.976l1.138-6.615
	c0.056-0.301-0.053-0.598-0.271-0.813l-4.799-4.639C-0.13,10.364,0.169,9.47,0.929,9.361l6.643-0.977
	C7.869,8.33,8.113,8.168,8.25,7.897l2.956-6.02c0.325-0.679,1.302-0.679,1.626,0l2.956,6.02c0.136,0.271,0.38,0.461,0.678,0.487
	l6.643,0.977c0.761,0.108,1.058,1.03,0.517,1.545l-4.801,4.664c-0.216,0.219-0.325,0.516-0.271,0.813l1.139,6.617
	c0.136,0.76-0.65,1.329-1.328,0.977l-5.912-3.146C12.182,20.696,11.856,20.696,11.584,20.831z"/>
</svg>
