<?xml version="1.0" encoding="utf-8"?>
<!-- Generator: Adobe Illustrator 16.0.0, SVG Export Plug-In . SVG Version: 6.00 Build 0)  -->
<!DOCTYPE svg PUBLIC "-//W3C//DTD SVG 1.1//EN" "http://www.w3.org/Graphics/SVG/1.1/DTD/svg11.dtd">
<svg version="1.1" id="Layer_1" xmlns="http://www.w3.org/2000/svg" xmlns:xlink="http://www.w3.org/1999/xlink" x="0px" y="0px"
	 width="24px" height="50.003px" viewBox="0 0 24 50.003" enable-background="new 0 0 24 50.003" xml:space="preserve">
<g>
	<path fill="#0A0A0A" d="M4.824,32.271c-0.425,0-0.771-0.346-0.771-0.772v-4.447c0-0.427,0.346-0.771,0.771-0.771
		c0.427,0,0.772,0.345,0.772,0.771v4.447C5.596,31.925,5.25,32.271,4.824,32.271z"/>
	<path fill="#0A0A0A" d="M9.608,32.271c-0.426,0-0.771-0.346-0.771-0.772v-4.447c0-0.427,0.345-0.771,0.771-0.771
		c0.426,0,0.771,0.345,0.771,0.771v4.447C10.379,31.925,10.034,32.271,9.608,32.271z"/>
	<path fill="#0A0A0A" d="M14.393,32.271c-0.426,0-0.771-0.346-0.771-0.772v-4.447c0-0.427,0.346-0.771,0.771-0.771
		s0.771,0.345,0.771,0.771v4.447C15.163,31.925,14.818,32.271,14.393,32.271z"/>
	<path fill="#0A0A0A" d="M19.177,32.271c-0.426,0-0.771-0.346-0.771-0.772v-4.447c0-0.427,0.346-0.771,0.771-0.771
		s0.771,0.345,0.771,0.771v4.447C19.948,31.925,19.603,32.271,19.177,32.271z"/>
	<path fill="#0A0A0A" d="M22.965,28.557H1.036c-0.426,0-0.771,0.346-0.771,0.772v14.12c0,3.255,2.647,5.902,5.901,5.902h16.799
		c0.426,0,0.771-0.346,0.771-0.771V29.329C23.736,28.902,23.391,28.557,22.965,28.557z M6.866,42.456
		c0,0.426-0.345,0.771-0.771,0.771H4.871c-0.426,0-0.771-0.346-0.771-0.771v-1.224c0-0.427,0.345-0.771,0.771-0.771h1.225
		c0.426,0,0.771,0.345,0.771,0.771V42.456z M6.866,36.978c0,0.426-0.345,0.771-0.771,0.771H4.871c-0.426,0-0.771-0.345-0.771-0.771
		v-1.225c0-0.427,0.345-0.772,0.771-0.772h1.225c0.426,0,0.771,0.346,0.771,0.772V36.978z M11.212,42.456
		c0,0.426-0.346,0.771-0.772,0.771H9.215c-0.425,0-0.771-0.346-0.771-0.771v-1.224c0-0.427,0.346-0.771,0.771-0.771h1.225
		c0.426,0,0.772,0.345,0.772,0.771V42.456L11.212,42.456z M11.212,36.978c0,0.426-0.346,0.771-0.772,0.771H9.215
		c-0.425,0-0.771-0.345-0.771-0.771v-1.225c0-0.427,0.346-0.772,0.771-0.772h1.225c0.426,0,0.772,0.346,0.772,0.772V36.978
		L11.212,36.978z M15.556,42.456c0,0.426-0.345,0.771-0.771,0.771h-1.224c-0.426,0-0.771-0.346-0.771-0.771v-1.224
		c0-0.427,0.345-0.771,0.771-0.771h1.224c0.427,0,0.771,0.345,0.771,0.771V42.456z M15.556,36.978c0,0.426-0.345,0.771-0.771,0.771
		h-1.224c-0.426,0-0.771-0.345-0.771-0.771v-1.225c0-0.427,0.345-0.772,0.771-0.772h1.224c0.427,0,0.771,0.346,0.771,0.772V36.978z
		 M19.901,42.456c0,0.426-0.345,0.771-0.771,0.771h-1.226c-0.425,0-0.771-0.346-0.771-0.771v-1.224c0-0.427,0.346-0.771,0.771-0.771
		h1.226c0.426,0,0.771,0.345,0.771,0.771V42.456L19.901,42.456z M19.901,36.978c0,0.426-0.345,0.771-0.771,0.771h-1.226
		c-0.425,0-0.771-0.345-0.771-0.771v-1.225c0-0.427,0.346-0.772,0.771-0.772h1.226c0.426,0,0.771,0.346,0.771,0.772V36.978
		L19.901,36.978z"/>
</g>
<g>
	<path fill="#FF2E2E" d="M4.824,7.182c-0.425,0-0.771-0.346-0.771-0.772V1.962c0-0.427,0.346-0.771,0.771-0.771
		c0.427,0,0.772,0.345,0.772,0.771v4.447C5.596,6.836,5.25,7.182,4.824,7.182z"/>
	<path fill="#FF2E2E" d="M9.608,7.182c-0.426,0-0.771-0.346-0.771-0.772V1.962c0-0.427,0.345-0.771,0.771-0.771
		c0.426,0,0.771,0.345,0.771,0.771v4.447C10.379,6.836,10.034,7.182,9.608,7.182z"/>
	<path fill="#FF2E2E" d="M14.393,7.182c-0.426,0-0.771-0.346-0.771-0.772V1.962c0-0.427,0.346-0.771,0.771-0.771
		s0.771,0.345,0.771,0.771v4.447C15.163,6.836,14.818,7.182,14.393,7.182z"/>
	<path fill="#FF2E2E" d="M19.177,7.182c-0.426,0-0.771-0.346-0.771-0.772V1.962c0-0.427,0.346-0.771,0.771-0.771
		s0.771,0.345,0.771,0.771v4.447C19.948,6.836,19.603,7.182,19.177,7.182z"/>
	<path fill="#FF2E2E" d="M22.965,3.468H1.036c-0.426,0-0.771,0.346-0.771,0.772v14.12c0,3.255,2.647,5.902,5.901,5.902h16.799
		c0.426,0,0.771-0.346,0.771-0.771V4.24C23.736,3.813,23.391,3.468,22.965,3.468z M6.866,17.367c0,0.426-0.345,0.771-0.771,0.771
		H4.871c-0.426,0-0.771-0.346-0.771-0.771v-1.224c0-0.427,0.345-0.771,0.771-0.771h1.225c0.426,0,0.771,0.345,0.771,0.771V17.367z
		 M6.866,11.889c0,0.426-0.345,0.771-0.771,0.771H4.871c-0.426,0-0.771-0.345-0.771-0.771v-1.225c0-0.427,0.345-0.772,0.771-0.772
		h1.225c0.426,0,0.771,0.346,0.771,0.772V11.889z M11.212,17.367c0,0.426-0.346,0.771-0.772,0.771H9.215
		c-0.425,0-0.771-0.346-0.771-0.771v-1.224c0-0.427,0.346-0.771,0.771-0.771h1.225c0.426,0,0.772,0.345,0.772,0.771V17.367
		L11.212,17.367z M11.212,11.889c0,0.426-0.346,0.771-0.772,0.771H9.215c-0.425,0-0.771-0.345-0.771-0.771v-1.225
		c0-0.427,0.346-0.772,0.771-0.772h1.225c0.426,0,0.772,0.346,0.772,0.772V11.889L11.212,11.889z M15.556,17.367
		c0,0.426-0.345,0.771-0.771,0.771h-1.224c-0.426,0-0.771-0.346-0.771-0.771v-1.224c0-0.427,0.345-0.771,0.771-0.771h1.224
		c0.427,0,0.771,0.345,0.771,0.771V17.367z M15.556,11.889c0,0.426-0.345,0.771-0.771,0.771h-1.224
		c-0.426,0-0.771-0.345-0.771-0.771v-1.225c0-0.427,0.345-0.772,0.771-0.772h1.224c0.427,0,0.771,0.346,0.771,0.772V11.889z
		 M19.901,17.367c0,0.426-0.345,0.771-0.771,0.771h-1.226c-0.425,0-0.771-0.346-0.771-0.771v-1.224c0-0.427,0.346-0.771,0.771-0.771
		h1.226c0.426,0,0.771,0.345,0.771,0.771V17.367L19.901,17.367z M19.901,11.889c0,0.426-0.345,0.771-0.771,0.771h-1.226
		c-0.425,0-0.771-0.345-0.771-0.771v-1.225c0-0.427,0.346-0.772,0.771-0.772h1.226c0.426,0,0.771,0.346,0.771,0.772V11.889
		L19.901,11.889z"/>
</g>
</svg>
