<?xml version="1.0" encoding="utf-8"?>
<!-- Generator: Adobe Illustrator 16.0.0, SVG Export Plug-In . SVG Version: 6.00 Build 0)  -->
<!DOCTYPE svg PUBLIC "-//W3C//DTD SVG 1.1//EN" "http://www.w3.org/Graphics/SVG/1.1/DTD/svg11.dtd">
<svg version="1.1" id="레이어_1" xmlns="http://www.w3.org/2000/svg" xmlns:xlink="http://www.w3.org/1999/xlink" x="0px"
	 y="0px" width="900px" height="900px" viewBox="0 0 900 900" enable-background="new 0 0 900 900" xml:space="preserve">
<g>
	<path fill="#222222" d="M181.381,242.596c-15.962,0-28.914-12.944-28.914-28.918V46.918c0-15.974,12.952-28.918,28.914-28.918
		c15.971,0,28.915,12.944,28.915,28.918v166.76C210.296,229.652,197.352,242.596,181.381,242.596z"/>
	<path fill="#222222" d="M360.76,242.596c-15.962,0-28.907-12.944-28.907-28.918V46.918C331.853,30.944,344.798,18,360.76,18
		c15.97,0,28.922,12.944,28.922,28.918v166.76C389.682,229.652,376.73,242.596,360.76,242.596z"/>
	<path fill="#222222" d="M540.123,242.596c-15.963,0-28.915-12.944-28.915-28.918V46.918C511.208,30.944,524.16,18,540.123,18
		c15.962,0,28.914,12.944,28.914,28.918v166.76C569.037,229.652,556.085,242.596,540.123,242.596z"/>
	<path fill="#222222" d="M719.502,242.596c-15.963,0-28.907-12.944-28.907-28.918V46.918c0-15.974,12.944-28.918,28.907-28.918
		c15.969,0,28.922,12.944,28.922,28.918v166.76C748.424,229.652,735.471,242.596,719.502,242.596z"/>
	<path fill="#222222" d="M861.548,103.39H39.357c-15.97,0-28.915,12.948-28.915,28.922v529.441
		c0,122.012,99.248,221.274,221.253,221.274h629.853c15.963,0,28.907-12.951,28.907-28.921V132.312
		C890.455,116.337,877.511,103.39,861.548,103.39z M257.963,624.512c0,15.978-12.952,28.923-28.922,28.923h-45.916
		c-15.962,0-28.914-12.945-28.914-28.923V578.62c0-15.979,12.952-28.923,28.914-28.923h45.916c15.97,0,28.922,12.944,28.922,28.923
		V624.512z M257.963,419.097c0,15.974-12.952,28.918-28.922,28.918h-45.916c-15.962,0-28.914-12.944-28.914-28.918v-45.946
		c0-15.973,12.952-28.918,28.914-28.918h45.916c15.97,0,28.922,12.945,28.922,28.918V419.097z M420.879,624.512
		c0,15.978-12.952,28.923-28.922,28.923h-45.916c-15.97,0-28.914-12.945-28.914-28.923V578.62c0-15.979,12.944-28.923,28.914-28.923
		h45.916c15.97,0,28.922,12.944,28.922,28.923V624.512z M420.879,419.097c0,15.974-12.952,28.918-28.922,28.918h-45.916
		c-15.97,0-28.914-12.944-28.914-28.918v-45.946c0-15.973,12.944-28.918,28.914-28.918h45.916c15.97,0,28.922,12.945,28.922,28.918
		V419.097z M583.748,624.512c0,15.978-12.944,28.923-28.906,28.923h-45.901c-15.969,0-28.914-12.945-28.914-28.923V578.62
		c0-15.979,12.945-28.923,28.914-28.923h45.901c15.962,0,28.906,12.944,28.906,28.923V624.512z M583.748,419.097
		c0,15.974-12.944,28.918-28.906,28.918h-45.901c-15.969,0-28.914-12.944-28.914-28.918v-45.946
		c0-15.973,12.945-28.918,28.914-28.918h45.901c15.962,0,28.906,12.945,28.906,28.918V419.097z M746.688,624.512
		c0,15.978-12.945,28.923-28.915,28.923h-45.931c-15.963,0-28.915-12.945-28.915-28.923V578.62
		c0-15.979,12.952-28.923,28.915-28.923h45.931c15.97,0,28.915,12.944,28.915,28.923V624.512z M746.688,419.097
		c0,15.974-12.945,28.918-28.915,28.918h-45.931c-15.963,0-28.915-12.944-28.915-28.918v-45.946
		c0-15.973,12.952-28.918,28.915-28.918h45.931c15.97,0,28.915,12.945,28.915,28.918V419.097z"/>
</g>
</svg>
