<?xml version="1.0" encoding="utf-8"?>
<!-- Generator: Adobe Illustrator 24.0.1, SVG Export Plug-In . SVG Version: 6.00 Build 0)  -->
<svg version="1.1" id="레이어_1" xmlns="http://www.w3.org/2000/svg" xmlns:xlink="http://www.w3.org/1999/xlink" x="0px"
	 y="0px" viewBox="0 0 73 85" style="enable-background:new 0 0 73 85;" xml:space="preserve">
<path d="M31.7,11.5c13.4,0,24.4,10.9,24.4,24.4S45.1,60.3,31.7,60.3S7.3,49.4,7.3,35.9S18.2,11.5,31.7,11.5 M31.7,4.1
	C14.1,4.1-0.2,18.4-0.2,35.9s14.3,31.8,31.8,31.8s31.8-14.3,31.8-31.8S49.3,4.1,31.7,4.1L31.7,4.1z"/>
<path d="M16.1,40.3c-1.7,0-3-1.4-3-3c0-7.4,4.4-14.2,11.2-17.2c1.5-0.7,3.3,0,4,1.5c0.7,1.5,0,3.3-1.5,4c-4.6,2-7.6,6.6-7.6,11.7
	C19.1,39,17.8,40.3,16.1,40.3z"/>
<path d="M66.9,79.3c-1.6,0-3.1-0.6-4.3-1.8L49,64c-2.4-2.4-2.4-6.2,0-8.6c2.4-2.4,6.2-2.4,8.6,0l13.5,13.5c2.4,2.4,2.4,6.2,0,8.6
	C70,78.7,68.5,79.3,66.9,79.3z"/>
</svg>
