<?xml version="1.0" encoding="utf-8"?>
<!-- Generator: Adobe Illustrator 16.0.0, SVG Export Plug-In . SVG Version: 6.00 Build 0)  -->
<!DOCTYPE svg PUBLIC "-//W3C//DTD SVG 1.1//EN" "http://www.w3.org/Graphics/SVG/1.1/DTD/svg11.dtd">
<svg version="1.1" id="레이어_1" xmlns="http://www.w3.org/2000/svg" xmlns:xlink="http://www.w3.org/1999/xlink" x="0px"
	 y="0px" width="900px" height="900px" viewBox="0 0 900 900" enable-background="new 0 0 900 900" xml:space="preserve">
<path fill="#222222" d="M432.614,752.728L209.659,870.341c-25.568,13.296-55.228-8.182-50.114-36.818L202.5,583.978
	c2.045-11.25-2.046-22.5-10.228-30.682L11.25,378.409c-20.455-20.455-9.205-54.205,19.432-58.295l250.568-36.818
	c11.25-2.045,20.454-8.182,25.567-18.409L418.295,37.841c12.272-25.568,49.091-25.568,61.363,0l111.478,227.045
	c5.114,10.228,14.318,17.387,25.568,18.409l250.568,36.818c28.636,4.091,39.886,38.864,19.432,58.295L705.682,554.318
	C697.5,562.5,693.408,573.75,695.454,585l42.954,249.546c5.114,28.636-24.545,50.113-50.113,36.817L465.341,752.728
	C455.114,747.613,442.841,747.613,432.614,752.728z"/>
</svg>
