<?xml version="1.0" encoding="utf-8"?>
<!-- Generator: Adobe Illustrator 24.0.1, SVG Export Plug-In . SVG Version: 6.00 Build 0)  -->
<svg version="1.1" id="레이어_1" xmlns="http://www.w3.org/2000/svg" xmlns:xlink="http://www.w3.org/1999/xlink" x="0px"
	 y="0px" viewBox="0 0 88 85" style="enable-background:new 0 0 88 85;" xml:space="preserve">
<path d="M42.3,72.1L20.5,83.6c-2.5,1.3-5.4-0.8-4.9-3.6l4.2-24.4c0.2-1.1-0.2-2.2-1-3L1.1,35.5c-2-2-0.9-5.3,1.9-5.7l24.5-3.6
	c1.1-0.2,2-0.8,2.5-1.8L40.9,2.2c1.2-2.5,4.8-2.5,6,0l10.9,22.2c0.5,1,1.4,1.7,2.5,1.8l24.5,3.6c2.8,0.4,3.9,3.8,1.9,5.7L69,52.7
	c-0.8,0.8-1.2,1.9-1,3l4.2,24.4c0.5,2.8-2.4,4.9-4.9,3.6L45.5,72.1C44.5,71.6,43.3,71.6,42.3,72.1z"/>
</svg>
