<?xml version="1.0" encoding="utf-8"?>
<!-- Generator: Adobe Illustrator 24.0.1, SVG Export Plug-In . SVG Version: 6.00 Build 0)  -->
<svg version="1.1" id="레이어_1" xmlns="http://www.w3.org/2000/svg" xmlns:xlink="http://www.w3.org/1999/xlink" x="0px"
	 y="0px" viewBox="0 0 80 85" style="enable-background:new 0 0 80 85;" xml:space="preserve">
<path d="M71,49.6c0-0.8,0.2-1.3,1-1.1c0.5,0.1,0.9,0,1.4,0c3.2-0.1,6.2-3.2,6.3-6.7c0-2-0.7-3.7-2-5.1c-6.3-6.8-12.5-13.5-18.8-20.3
	c-4-4.4-8.1-8.7-12.1-13.1c-1.9-2.1-4.1-3.2-6.7-3.3c-2.8-0.1-5.2,1.1-7.2,3.4c-6.5,7-13,14.1-19.5,21.1c-3.8,4.1-7.6,8.1-11.3,12.2
	c-2.5,2.8-2.7,6.5-0.5,9.5c1.4,1.9,3.9,2.4,6,2.3c1.2-0.1,1.2,0,1.2,1.3c0,10.5,0,21,0,31.5c0,2.4,1.1,3.7,3.2,3.7
	c4.8,0,4.7,0,9.5,0l5.6,0V58.3c0-1.6,1.1-2.9,2.5-2.9h20.6c1.4,0,2.5,1.3,2.5,2.9V85l4.3,0c4.8,0,6.2,0,11,0c2,0,3.1-1.3,3.1-3.5"/>
<path d="M63.3,14.2c2.8,3,5.5,6,8.3,9V6.8c0-1.7-1.2-3.1-2.7-3.1h-6c-1.5,0-2.7,1.4-2.7,3.1v4.1C61.2,12,62.3,13.1,63.3,14.2z"/>
</svg>
