<?xml version="1.0" encoding="utf-8"?>
<!-- Generator: Adobe Illustrator 16.0.0, SVG Export Plug-In . SVG Version: 6.00 Build 0)  -->
<!DOCTYPE svg PUBLIC "-//W3C//DTD SVG 1.1//EN" "http://www.w3.org/Graphics/SVG/1.1/DTD/svg11.dtd">
<svg version="1.1" id="Layer_1" xmlns="http://www.w3.org/2000/svg" xmlns:xlink="http://www.w3.org/1999/xlink" x="0px" y="0px"
	 width="24px" height="50.003px" viewBox="0 0 24 50.003" enable-background="new 0 0 24 50.003" xml:space="preserve">
<g>
	<path fill="#0A0A0A" d="M20.604,39.808c0-0.221,0.053-0.359,0.273-0.305c0.14,0.028,0.25,0,0.387,0
		c0.884-0.028,1.71-0.883,1.74-1.849c0-0.551-0.193-1.02-0.554-1.408c-1.736-1.875-3.45-3.724-5.187-5.6
		c-1.104-1.215-2.233-2.401-3.337-3.614c-0.527-0.58-1.134-0.884-1.851-0.91c-0.773-0.028-1.434,0.303-1.987,0.937
		c-1.794,1.932-3.587,3.891-5.381,5.822c-1.047,1.132-2.097,2.235-3.117,3.365c-0.69,0.773-0.744,1.796-0.137,2.622
		c0.385,0.525,1.075,0.662,1.653,0.635c0.333-0.028,0.333,0,0.333,0.359c0,2.896,0,5.793,0,8.692c0,0.661,0.304,1.02,0.882,1.02
		c1.325,0,1.297,0,2.622,0h1.544v-7.367c0-0.441,0.303-0.801,0.69-0.801h5.684c0.388,0,0.691,0.359,0.691,0.801v7.367h1.186
		c1.324,0,1.711,0,3.035,0c0.553,0,0.855-0.358,0.855-0.965"/>
	<path fill="#0A0A0A" d="M18.478,30.039c0.772,0.827,1.516,1.656,2.29,2.483v-4.525c0-0.469-0.331-0.855-0.744-0.855h-1.657
		c-0.412,0-0.743,0.387-0.743,0.855v1.132C17.896,29.432,18.201,29.736,18.478,30.039z"/>
</g>
<g>
	<path fill="#FF2E2E" d="M20.604,14.687c0-0.221,0.053-0.359,0.273-0.305c0.14,0.028,0.25,0,0.387,0
		c0.884-0.028,1.71-0.883,1.74-1.849c0-0.551-0.193-1.02-0.554-1.408c-1.736-1.875-3.45-3.724-5.187-5.6
		c-1.104-1.215-2.233-2.401-3.337-3.614c-0.527-0.58-1.134-0.884-1.851-0.91c-0.773-0.028-1.434,0.303-1.987,0.937
		C8.295,3.87,6.502,5.829,4.708,7.76c-1.047,1.132-2.097,2.235-3.117,3.365c-0.69,0.773-0.744,1.796-0.137,2.622
		c0.385,0.525,1.075,0.662,1.653,0.635c0.333-0.028,0.333,0,0.333,0.359c0,2.896,0,5.793,0,8.692c0,0.661,0.304,1.02,0.882,1.02
		c1.325,0,1.297,0,2.622,0h1.544v-7.367c0-0.441,0.303-0.801,0.69-0.801h5.684c0.388,0,0.691,0.359,0.691,0.801v7.367h1.186
		c1.324,0,1.711,0,3.035,0c0.553,0,0.855-0.358,0.855-0.965"/>
	<path fill="#FF2E2E" d="M18.478,4.918c0.772,0.827,1.516,1.656,2.29,2.483V2.876c0-0.469-0.331-0.855-0.744-0.855h-1.657
		c-0.412,0-0.743,0.387-0.743,0.855v1.132C17.896,4.311,18.201,4.616,18.478,4.918z"/>
</g>
</svg>
